<svg width="224" height="97" viewBox="0 0 224 97" fill="none" xmlns="http://www.w3.org/2000/svg">
<path d="M92.4891 76.3476L92.4884 76.3472C89.4604 74.9062 87.3431 72.6486 86.1322 69.5712C84.9181 66.4194 84.3087 62.3749 84.3086 57.4336C84.3086 57.433 84.3086 57.4323 84.3086 57.4317L85.5285 24.8609L85.5348 24.6918L85.3836 24.7678L74.4642 30.2591L84.2725 9.02718H94.4047V57.4317C94.4047 63.4449 95.2826 68.1812 97.0469 71.6326C97.0845 71.7062 97.1502 71.7711 97.2317 71.8294C97.3141 71.8885 97.4191 71.9454 97.5439 72.0008C97.7934 72.1117 98.1324 72.2211 98.5523 72.3295C99.3929 72.5464 100.571 72.7626 102.038 72.9775C104.971 73.4074 109.069 73.8335 113.945 74.2481C123.699 75.0772 136.578 75.861 149.518 76.5374C168.268 77.5176 187.15 78.2727 196.842 78.6143H105.373C99.8888 78.6143 95.5968 77.8561 92.4891 76.3476ZM156.657 74.3598L196.006 78.2593L126.394 74.16L126.394 74.1598H126.389C123.725 74.1598 121.642 73.8633 120.134 73.276C118.716 72.6945 117.704 71.5643 117.102 69.8708C116.498 68.1718 116.193 65.679 116.193 62.3851L120.196 12.6968L120.203 12.6114L120.12 12.5915L98.95 7.53983L126.289 10.9951V62.3811C126.289 65.3599 126.747 67.7854 127.672 69.6517L127.672 69.6518L127.674 69.6559C128.693 71.4869 130.954 72.38 134.397 72.38H136.68L150.559 73.7555V74.2598V74.3598H150.66H156.657ZM150.759 74.1598V73.7753L154.639 74.1598H150.759ZM156.667 74.1598L150.759 73.5744V58.4982L160.882 69.4771L160.902 69.4986L160.93 69.506C162.688 69.969 164.484 70.3327 166.318 70.5973L166.322 70.5977C168.232 70.796 170.066 70.8952 171.824 70.8952C178.773 70.8952 184.133 69.7063 187.893 67.3165C191.735 64.9225 193.66 61.4588 193.66 56.9368C193.66 52.4165 191.813 48.9528 188.123 46.558C187.633 46.24 186.943 46.1998 186.118 46.3495C185.291 46.4997 184.309 46.8448 183.218 47.3228C181.036 48.2788 178.399 49.7758 175.657 51.3433L175.303 51.5457C172.67 53.0523 169.953 54.6061 167.455 55.801C164.855 57.0443 162.508 57.8904 160.744 57.8999L150.759 51.2998V27.3846L160.984 20.9064C161.148 20.9129 161.355 20.9751 161.604 21.0957C161.866 21.2225 162.167 21.4099 162.501 21.6507C163.169 22.1322 163.965 22.8209 164.845 23.6473C166.436 25.1415 168.297 27.078 170.179 29.0366C170.379 29.2445 170.579 29.4526 170.779 29.6604C172.862 31.8252 174.938 33.9626 176.666 35.4969C177.529 36.2638 178.31 36.8833 178.962 37.2805C179.289 37.479 179.587 37.6243 179.851 37.7038C180.113 37.783 180.352 37.8002 180.552 37.728C183.387 36.7334 185.69 35.2401 187.456 33.2466C189.305 31.2465 190.228 28.747 190.228 25.7553C190.228 22.5617 189.112 19.9604 186.878 17.9604C184.729 15.9686 182.045 14.5429 178.829 13.6814C175.694 12.7552 172.596 12.2918 169.536 12.2918C168.082 12.2918 166.553 12.3911 164.947 12.5895L164.947 12.5896C163.419 12.7879 162.081 13.0193 160.933 13.2842L160.908 13.2901L160.888 13.3078L150.759 22.5568V20.8058C150.759 17.8275 150.263 15.4337 149.261 13.632C148.319 11.7328 146.093 10.807 142.651 10.807H140.37L58.4708 0.412246L170.1 9.02688L170.1 9.02718H170.108C173.078 9.02718 176.315 9.22487 179.821 9.62048L179.821 9.6205C183.398 10.0156 186.784 10.8057 189.979 11.9906L189.98 11.9912C193.169 13.108 195.786 14.8149 197.832 17.1108C199.872 19.3982 200.896 22.4411 200.896 26.2502C200.896 29.1901 199.727 31.9382 197.377 34.4967C195.03 36.9861 191.274 38.9922 186.096 40.5076L185.642 40.6404L186.111 40.7027C191.062 41.3619 194.9 42.4484 197.63 43.9578L197.632 43.9586C200.365 45.4038 202.253 47.1725 203.309 49.2607C204.369 51.3566 204.9 53.7495 204.9 56.4418C204.9 60.1196 203.952 63.1318 202.062 65.4862C200.167 67.781 197.665 69.5531 194.552 70.8013L194.551 70.8017C191.51 72.0519 188.124 72.9409 184.394 73.4678C180.738 73.9291 177.12 74.1598 173.54 74.1598H156.667ZM150.559 57.9862L135.028 41.1408L150.559 51.4074V57.9862ZM150.559 23.0103V27.2746L135.305 36.9403L150.559 23.0103ZM74.0425 30.695L69.2836 40.9965L69.2831 40.9978L57.4556 67.5615L52.4615 56.9044L47.7454 43.9196L74.0425 30.695ZM29.8045 9.02718L52.2766 56.9811L62.7508 85.82L29.9557 26.202L29.6038 25.5623L29.7707 26.2731L41.0167 74.1598H19.1V9.02718H29.8045Z" fill="#352801" stroke="#271C65" stroke-width="0.2" stroke-miterlimit="11.4737"/>
<path d="M16.82 94.9C15.86 94.9 15.1067 94.7467 14.56 94.44C14.0267 94.1467 13.6533 93.6867 13.44 93.06C13.2267 92.42 13.12 91.6 13.12 90.6V82.9L8.12 94H7.72L2.52 82.7V94H1.72V80.8H3.62L8.42 91.2L13.12 80.8H14.92V90.6C14.92 91.8133 15.0733 92.7667 15.38 93.46C15.6867 94.1533 16.1667 94.5 16.82 94.5V94.9ZM21.9694 94.2C21.4094 94.2 20.8694 94.1 20.3494 93.9C19.8294 93.7 19.4027 93.34 19.0694 92.82C18.736 92.3 18.5694 91.56 18.5694 90.6V87C18.5694 86.4 18.4827 85.92 18.3094 85.56C18.1494 85.1867 17.7694 85 17.1694 85H16.9694V84.6H18.5694C19.036 84.6 19.396 84.66 19.6494 84.78C19.916 84.9 20.1027 85.1333 20.2094 85.48C20.316 85.8267 20.3694 86.3333 20.3694 87V90.6C20.3694 91.2667 20.476 91.8 20.6894 92.2C20.9027 92.5867 21.176 92.8667 21.5094 93.04C21.856 93.2133 22.2094 93.3 22.5694 93.3C22.836 93.3 23.0894 93.2533 23.3294 93.16C23.5694 93.0533 23.796 92.92 24.0094 92.76C24.2227 92.6 24.4094 92.4267 24.5694 92.24V84.6H26.3694V94H25.3694L24.6694 93.2H24.5694C24.316 93.4533 23.9694 93.6867 23.5294 93.9C23.0894 94.1 22.5694 94.2 21.9694 94.2ZM29.2525 94V83.2C29.2525 82.6 29.1658 82.12 28.9925 81.76C28.8325 81.3867 28.4525 81.2 27.8525 81.2H27.4525V80.8H29.2525C29.7192 80.8 30.0792 80.86 30.3325 80.98C30.5992 81.1 30.7858 81.3333 30.8925 81.68C30.9992 82.0267 31.0525 82.5333 31.0525 83.2V85.4C31.3058 85.1467 31.6525 84.92 32.0925 84.72C32.5325 84.5067 33.0525 84.4 33.6525 84.4C34.0792 84.4 34.4925 84.4533 34.8925 84.56C35.3058 84.6667 35.6725 84.8533 35.9925 85.12C36.3125 85.3733 36.5658 85.74 36.7525 86.22C36.9525 86.6867 37.0525 87.28 37.0525 88V94H35.2525V88C35.2525 87.3333 35.1458 86.8067 34.9325 86.42C34.7192 86.02 34.4458 85.7333 34.1125 85.56C33.7792 85.3867 33.4258 85.3 33.0525 85.3C32.6525 85.3 32.2792 85.4067 31.9325 85.62C31.5992 85.8333 31.3058 86.08 31.0525 86.36V94H29.2525ZM42.0784 94.2C41.7984 94.2 41.4918 94.1533 41.1584 94.06C40.8384 93.98 40.5251 93.8333 40.2184 93.62C39.9118 93.4067 39.6584 93.12 39.4584 92.76C39.2718 92.4 39.1784 91.9467 39.1784 91.4C39.1784 90.6667 39.4118 90.1 39.8784 89.7C40.3584 89.3 40.9851 89.02 41.7584 88.86C42.5451 88.6867 43.3851 88.6 44.2784 88.6H44.8784C44.8784 87.6667 44.7851 86.96 44.5984 86.48C44.4118 85.9867 44.1584 85.6533 43.8384 85.48C43.5318 85.2933 43.1784 85.2 42.7784 85.2C42.2184 85.2 41.7451 85.32 41.3584 85.56C40.9851 85.8 40.7251 86.2467 40.5784 86.9H39.6784C39.6784 86.5533 39.6984 86.2333 39.7384 85.94C39.7784 85.6333 39.9251 85.3533 40.1784 85.1C40.4318 84.8467 40.8451 84.6667 41.4184 84.56C41.9918 84.4533 42.5784 84.4 43.1784 84.4C43.6318 84.4 44.0651 84.4533 44.4784 84.56C44.9051 84.6667 45.2784 84.8667 45.5984 85.16C45.9318 85.44 46.1918 85.86 46.3784 86.42C46.5784 86.9667 46.6784 87.6933 46.6784 88.6V94H45.6784L44.9784 93.1H44.8784C44.6784 93.3533 44.3518 93.6 43.8984 93.84C43.4451 94.08 42.8384 94.2 42.0784 94.2ZM42.9784 93.3C43.4718 93.3 43.8584 93.18 44.1384 92.94C44.4318 92.6867 44.6784 92.4067 44.8784 92.1V89.4H44.2784C43.2784 89.4 42.4918 89.5867 41.9184 89.96C41.3584 90.32 41.0784 90.8 41.0784 91.4C41.0784 92.0533 41.2718 92.5333 41.6584 92.84C42.0451 93.1467 42.4851 93.3 42.9784 93.3ZM49.7673 94V87C49.7673 86.4 49.6807 85.92 49.5073 85.56C49.3473 85.1867 48.9673 85 48.3673 85H47.9673V84.6H49.7673C50.274 84.6 50.654 84.6733 50.9073 84.82C51.174 84.9533 51.3607 85.1467 51.4673 85.4H51.5673C51.8207 85.1467 52.1673 84.92 52.6073 84.72C53.0473 84.5067 53.5673 84.4 54.1673 84.4C54.514 84.4 54.834 84.44 55.1273 84.52C55.434 84.6 55.7073 84.74 55.9473 84.94C56.2007 85.14 56.4073 85.4267 56.5673 85.8C56.914 85.3467 57.3607 85 57.9073 84.76C58.454 84.52 59.0073 84.4 59.5673 84.4C60.074 84.4 60.534 84.5 60.9473 84.7C61.374 84.9 61.714 85.26 61.9673 85.78C62.234 86.2867 62.3673 87.0267 62.3673 88V94H60.5673V88C60.5673 87 60.4273 86.3 60.1473 85.9C59.8673 85.5 59.474 85.3 58.9673 85.3C58.5807 85.3 58.1807 85.44 57.7673 85.72C57.354 86 57.054 86.2933 56.8673 86.6C56.9207 86.7467 56.9473 86.9667 56.9473 87.26C56.9607 87.5533 56.9673 87.8 56.9673 88V94H55.1673V88C55.1673 87 55.0273 86.3 54.7473 85.9C54.4673 85.5 54.074 85.3 53.5673 85.3C53.1673 85.3 52.794 85.4067 52.4473 85.62C52.114 85.8333 51.8207 86.08 51.5673 86.36V94H49.7673ZM65.4705 94V87C65.4705 86.4 65.3838 85.92 65.2105 85.56C65.0505 85.1867 64.6705 85 64.0705 85H63.6705V84.6H65.4705C65.9771 84.6 66.3571 84.6733 66.6105 84.82C66.8771 84.9533 67.0638 85.1467 67.1705 85.4H67.2705C67.5238 85.1467 67.8705 84.92 68.3105 84.72C68.7505 84.5067 69.2705 84.4 69.8705 84.4C70.2171 84.4 70.5371 84.44 70.8305 84.52C71.1371 84.6 71.4105 84.74 71.6505 84.94C71.9038 85.14 72.1105 85.4267 72.2705 85.8C72.6171 85.3467 73.0638 85 73.6105 84.76C74.1571 84.52 74.7105 84.4 75.2705 84.4C75.7771 84.4 76.2371 84.5 76.6505 84.7C77.0771 84.9 77.4171 85.26 77.6705 85.78C77.9371 86.2867 78.0705 87.0267 78.0705 88V94H76.2705V88C76.2705 87 76.1305 86.3 75.8505 85.9C75.5705 85.5 75.1771 85.3 74.6705 85.3C74.2838 85.3 73.8838 85.44 73.4705 85.72C73.0571 86 72.7571 86.2933 72.5705 86.6C72.6238 86.7467 72.6505 86.9667 72.6505 87.26C72.6638 87.5533 72.6705 87.8 72.6705 88V94H70.8705V88C70.8705 87 70.7305 86.3 70.4505 85.9C70.1705 85.5 69.7771 85.3 69.2705 85.3C68.8705 85.3 68.4971 85.4067 68.1505 85.62C67.8171 85.8333 67.5238 86.08 67.2705 86.36V94H65.4705ZM83.1136 94.2C82.8336 94.2 82.5269 94.1533 82.1936 94.06C81.8736 93.98 81.5603 93.8333 81.2536 93.62C80.9469 93.4067 80.6936 93.12 80.4936 92.76C80.3069 92.4 80.2136 91.9467 80.2136 91.4C80.2136 90.6667 80.4469 90.1 80.9136 89.7C81.3936 89.3 82.0203 89.02 82.7936 88.86C83.5803 88.6867 84.4203 88.6 85.3136 88.6H85.9136C85.9136 87.6667 85.8203 86.96 85.6336 86.48C85.4469 85.9867 85.1936 85.6533 84.8736 85.48C84.5669 85.2933 84.2136 85.2 83.8136 85.2C83.2536 85.2 82.7803 85.32 82.3936 85.56C82.0203 85.8 81.7603 86.2467 81.6136 86.9H80.7136C80.7136 86.5533 80.7336 86.2333 80.7736 85.94C80.8136 85.6333 80.9603 85.3533 81.2136 85.1C81.4669 84.8467 81.8803 84.6667 82.4536 84.56C83.0269 84.4533 83.6136 84.4 84.2136 84.4C84.6669 84.4 85.1003 84.4533 85.5136 84.56C85.9403 84.6667 86.3136 84.8667 86.6336 85.16C86.9669 85.44 87.2269 85.86 87.4136 86.42C87.6136 86.9667 87.7136 87.6933 87.7136 88.6V94H86.7136L86.0136 93.1H85.9136C85.7136 93.3533 85.3869 93.6 84.9336 93.84C84.4803 94.08 83.8736 94.2 83.1136 94.2ZM84.0136 93.3C84.5069 93.3 84.8936 93.18 85.1736 92.94C85.4669 92.6867 85.7136 92.4067 85.9136 92.1V89.4H85.3136C84.3136 89.4 83.5269 89.5867 82.9536 89.96C82.3936 90.32 82.1136 90.8 82.1136 91.4C82.1136 92.0533 82.3069 92.5333 82.6936 92.84C83.0803 93.1467 83.5203 93.3 84.0136 93.3ZM93.6025 94.2C92.8025 94.2 92.1358 93.98 91.6025 93.54C91.0692 93.1 90.6692 92.5067 90.4025 91.76C90.1358 91.0133 90.0025 90.1933 90.0025 89.3C90.0025 88.3933 90.1358 87.5733 90.4025 86.84C90.6825 86.0933 91.1025 85.5 91.6625 85.06C92.2225 84.62 92.9358 84.4 93.8025 84.4C94.3625 84.4 94.8425 84.4667 95.2425 84.6C95.6425 84.72 95.9958 84.8533 96.3025 85V83.2C96.3025 82.6 96.2158 82.12 96.0425 81.76C95.8825 81.3867 95.5025 81.2 94.9025 81.2H94.5025V80.8H96.3025C96.7692 80.8 97.1292 80.86 97.3825 80.98C97.6492 81.1 97.8358 81.3333 97.9425 81.68C98.0492 82.0267 98.1025 82.5333 98.1025 83.2V94H97.1025L96.4025 93.1H96.3025C96.0892 93.3533 95.7892 93.6 95.4025 93.84C95.0158 94.08 94.4158 94.2 93.6025 94.2ZM94.2025 93.4C94.6158 93.4 94.9492 93.34 95.2025 93.22C95.4558 93.1 95.6625 92.9533 95.8225 92.78C95.9958 92.5933 96.1558 92.4 96.3025 92.2V85.8C95.9958 85.6533 95.6758 85.52 95.3425 85.4C95.0225 85.2667 94.7092 85.2 94.4025 85.2C93.8025 85.2 93.3158 85.3867 92.9425 85.76C92.5825 86.12 92.3158 86.6067 92.1425 87.22C91.9825 87.8333 91.9025 88.5267 91.9025 89.3C91.9025 90.06 91.9825 90.7533 92.1425 91.38C92.3025 91.9933 92.5492 92.4867 92.8825 92.86C93.2292 93.22 93.6692 93.4 94.2025 93.4ZM108.131 94C107.664 94 107.297 93.94 107.031 93.82C106.777 93.7 106.597 93.4667 106.491 93.12C106.384 92.7733 106.331 92.2667 106.331 91.6V80.8H108.131V91.6C108.131 92.2 108.211 92.6867 108.371 93.06C108.544 93.42 108.931 93.6 109.531 93.6H109.931V94H108.131ZM116.194 94.2C115.447 94.2 114.861 94.08 114.434 93.84C114.007 93.6 113.694 93.3533 113.494 93.1H113.394L112.694 94H111.694V83.2C111.694 82.6 111.607 82.12 111.434 81.76C111.274 81.3867 110.894 81.2 110.294 81.2H109.894V80.8H111.694C112.161 80.8 112.521 80.86 112.774 80.98C113.041 81.1 113.227 81.3333 113.334 81.68C113.441 82.0267 113.494 82.5333 113.494 83.2V85C113.801 84.8533 114.154 84.72 114.554 84.6C114.954 84.4667 115.434 84.4 115.994 84.4C116.861 84.4 117.574 84.62 118.134 85.06C118.694 85.5 119.107 86.0933 119.374 86.84C119.654 87.5733 119.794 88.3933 119.794 89.3C119.794 90.1933 119.661 91.0133 119.394 91.76C119.127 92.5067 118.727 93.1 118.194 93.54C117.661 93.98 116.994 94.2 116.194 94.2ZM115.594 93.4C116.127 93.4 116.561 93.22 116.894 92.86C117.241 92.4867 117.494 91.9933 117.654 91.38C117.814 90.7533 117.894 90.06 117.894 89.3C117.894 88.5267 117.807 87.8333 117.634 87.22C117.474 86.6067 117.207 86.12 116.834 85.76C116.474 85.3867 115.994 85.2 115.394 85.2C115.087 85.2 114.767 85.2667 114.434 85.4C114.114 85.52 113.801 85.6533 113.494 85.8V92.2C113.694 92.5067 113.954 92.7867 114.274 93.04C114.607 93.28 115.047 93.4 115.594 93.4ZM122.323 94V87C122.323 86.4 122.236 85.92 122.063 85.56C121.903 85.1867 121.523 85 120.923 85H120.723V84.6H122.323C122.829 84.6 123.209 84.6733 123.463 84.82C123.729 84.9667 123.916 85.1933 124.023 85.5C124.249 85.2733 124.576 85.0333 125.003 84.78C125.443 84.5267 125.949 84.4 126.523 84.4C126.723 84.4 126.936 84.4267 127.163 84.48C127.389 84.52 127.576 84.5933 127.723 84.7C127.869 84.8067 127.996 84.9333 128.103 85.08C128.209 85.2267 128.316 85.4 128.423 85.6L127.623 86.2C127.476 86 127.256 85.8533 126.963 85.76C126.683 85.6533 126.369 85.6 126.023 85.6C125.623 85.6 125.256 85.6933 124.923 85.88C124.589 86.0533 124.323 86.2933 124.123 86.6C124.123 86.6667 124.123 86.7667 124.123 86.9C124.123 87.02 124.123 87.12 124.123 87.2V94H122.323ZM132.352 94.2C132.072 94.2 131.765 94.1533 131.432 94.06C131.112 93.98 130.799 93.8333 130.492 93.62C130.185 93.4067 129.932 93.12 129.732 92.76C129.545 92.4 129.452 91.9467 129.452 91.4C129.452 90.6667 129.685 90.1 130.152 89.7C130.632 89.3 131.259 89.02 132.032 88.86C132.819 88.6867 133.659 88.6 134.552 88.6H135.152C135.152 87.6667 135.059 86.96 134.872 86.48C134.685 85.9867 134.432 85.6533 134.112 85.48C133.805 85.2933 133.452 85.2 133.052 85.2C132.492 85.2 132.019 85.32 131.632 85.56C131.259 85.8 130.999 86.2467 130.852 86.9H129.952C129.952 86.5533 129.972 86.2333 130.012 85.94C130.052 85.6333 130.199 85.3533 130.452 85.1C130.705 84.8467 131.119 84.6667 131.692 84.56C132.265 84.4533 132.852 84.4 133.452 84.4C133.905 84.4 134.339 84.4533 134.752 84.56C135.179 84.6667 135.552 84.8667 135.872 85.16C136.205 85.44 136.465 85.86 136.652 86.42C136.852 86.9667 136.952 87.6933 136.952 88.6V94H135.952L135.252 93.1H135.152C134.952 93.3533 134.625 93.6 134.172 93.84C133.719 94.08 133.112 94.2 132.352 94.2ZM133.252 93.3C133.745 93.3 134.132 93.18 134.412 92.94C134.705 92.6867 134.952 92.4067 135.152 92.1V89.4H134.552C133.552 89.4 132.765 89.5867 132.192 89.96C131.632 90.32 131.352 90.8 131.352 91.4C131.352 92.0533 131.545 92.5333 131.932 92.84C132.319 93.1467 132.759 93.3 133.252 93.3ZM139.741 94V83.2C139.741 82.6 139.654 82.12 139.481 81.76C139.321 81.3867 138.941 81.2 138.341 81.2H137.941V80.8H139.741C140.207 80.8 140.567 80.86 140.821 80.98C141.087 81.1 141.274 81.3333 141.381 81.68C141.487 82.0267 141.541 82.5333 141.541 83.2V85.4C141.794 85.1467 142.141 84.92 142.581 84.72C143.021 84.5067 143.541 84.4 144.141 84.4C144.567 84.4 144.981 84.4533 145.381 84.56C145.794 84.6667 146.161 84.8533 146.481 85.12C146.801 85.3733 147.054 85.74 147.241 86.22C147.441 86.6867 147.541 87.28 147.541 88V94H145.741V88C145.741 87.3333 145.634 86.8067 145.421 86.42C145.207 86.02 144.934 85.7333 144.601 85.56C144.267 85.3867 143.914 85.3 143.541 85.3C143.141 85.3 142.767 85.4067 142.421 85.62C142.087 85.8333 141.794 86.08 141.541 86.36V94H139.741ZM150.627 94V87C150.627 86.4 150.54 85.92 150.367 85.56C150.207 85.1867 149.827 85 149.227 85H148.827V84.6H150.627C151.093 84.6 151.453 84.66 151.707 84.78C151.973 84.9 152.16 85.1333 152.267 85.48C152.373 85.8267 152.427 86.3333 152.427 87V94H150.627ZM151.387 83.4C151.08 83.4 150.813 83.2733 150.587 83.02C150.373 82.7667 150.267 82.4667 150.267 82.12C150.267 81.84 150.347 81.62 150.507 81.46C150.68 81.3 150.907 81.22 151.187 81.22C151.493 81.22 151.753 81.3467 151.967 81.6C152.193 81.8533 152.307 82.1533 152.307 82.5C152.307 82.78 152.22 83 152.047 83.16C151.887 83.32 151.667 83.4 151.387 83.4ZM155.549 94V87C155.549 86.4 155.462 85.92 155.289 85.56C155.129 85.1867 154.749 85 154.149 85H153.749V84.6H155.549C156.055 84.6 156.435 84.6733 156.689 84.82C156.955 84.9533 157.142 85.1467 157.249 85.4H157.349C157.602 85.1467 157.949 84.92 158.389 84.72C158.829 84.5067 159.349 84.4 159.949 84.4C160.295 84.4 160.615 84.44 160.909 84.52C161.215 84.6 161.489 84.74 161.729 84.94C161.982 85.14 162.189 85.4267 162.349 85.8C162.695 85.3467 163.142 85 163.689 84.76C164.235 84.52 164.789 84.4 165.349 84.4C165.855 84.4 166.315 84.5 166.729 84.7C167.155 84.9 167.495 85.26 167.749 85.78C168.015 86.2867 168.149 87.0267 168.149 88V94H166.349V88C166.349 87 166.209 86.3 165.929 85.9C165.649 85.5 165.255 85.3 164.749 85.3C164.362 85.3 163.962 85.44 163.549 85.72C163.135 86 162.835 86.2933 162.649 86.6C162.702 86.7467 162.729 86.9667 162.729 87.26C162.742 87.5533 162.749 87.8 162.749 88V94H160.949V88C160.949 87 160.809 86.3 160.529 85.9C160.249 85.5 159.855 85.3 159.349 85.3C158.949 85.3 158.575 85.4067 158.229 85.62C157.895 85.8333 157.602 86.08 157.349 86.36V94H155.549ZM176.632 94V83.2C176.632 82.6 176.545 82.12 176.372 81.76C176.212 81.3867 175.832 81.2 175.232 81.2H174.832V80.8H180.032C180.552 80.8 181.118 80.84 181.732 80.92C182.358 81 182.952 81.16 183.512 81.4C184.072 81.6267 184.532 81.9733 184.892 82.44C185.252 82.9067 185.432 83.5267 185.432 84.3C185.432 84.9 185.225 85.46 184.812 85.98C184.398 86.4867 183.738 86.8933 182.832 87.2C183.698 87.3333 184.372 87.5533 184.852 87.86C185.332 88.1533 185.665 88.5133 185.852 88.94C186.038 89.3667 186.132 89.8533 186.132 90.4C186.132 91.1467 185.965 91.76 185.632 92.24C185.298 92.7067 184.858 93.0667 184.312 93.32C183.778 93.5733 183.185 93.7533 182.532 93.86C181.892 93.9533 181.258 94 180.632 94H176.632ZM180.332 93.3C181.545 93.3 182.478 93.06 183.132 92.58C183.798 92.1 184.132 91.4067 184.132 90.5C184.132 89.5933 183.812 88.9 183.172 88.42C182.532 87.94 181.585 87.7 180.332 87.7H178.432V93.02C178.738 93.1133 179.052 93.1867 179.372 93.24C179.705 93.28 180.025 93.3 180.332 93.3ZM178.432 86.9H180.332C180.865 86.9 181.372 86.8 181.852 86.6C182.345 86.4 182.745 86.1 183.052 85.7C183.372 85.3 183.532 84.8 183.532 84.2C183.532 83.56 183.338 83.04 182.952 82.64C182.578 82.24 182.112 81.9533 181.552 81.78C181.005 81.5933 180.465 81.5 179.932 81.5C179.678 81.5 179.412 81.52 179.132 81.56C178.865 81.6 178.632 81.6467 178.432 81.7V86.9ZM190.633 94.2C190.353 94.2 190.046 94.1533 189.713 94.06C189.393 93.98 189.08 93.8333 188.773 93.62C188.466 93.4067 188.213 93.12 188.013 92.76C187.826 92.4 187.733 91.9467 187.733 91.4C187.733 90.6667 187.966 90.1 188.433 89.7C188.913 89.3 189.54 89.02 190.313 88.86C191.1 88.6867 191.94 88.6 192.833 88.6H193.433C193.433 87.6667 193.34 86.96 193.153 86.48C192.966 85.9867 192.713 85.6533 192.393 85.48C192.086 85.2933 191.733 85.2 191.333 85.2C190.773 85.2 190.3 85.32 189.913 85.56C189.54 85.8 189.28 86.2467 189.133 86.9H188.233C188.233 86.5533 188.253 86.2333 188.293 85.94C188.333 85.6333 188.48 85.3533 188.733 85.1C188.986 84.8467 189.4 84.6667 189.973 84.56C190.546 84.4533 191.133 84.4 191.733 84.4C192.186 84.4 192.62 84.4533 193.033 84.56C193.46 84.6667 193.833 84.8667 194.153 85.16C194.486 85.44 194.746 85.86 194.933 86.42C195.133 86.9667 195.233 87.6933 195.233 88.6V94H194.233L193.533 93.1H193.433C193.233 93.3533 192.906 93.6 192.453 93.84C192 94.08 191.393 94.2 190.633 94.2ZM191.533 93.3C192.026 93.3 192.413 93.18 192.693 92.94C192.986 92.6867 193.233 92.4067 193.433 92.1V89.4H192.833C191.833 89.4 191.046 89.5867 190.473 89.96C189.913 90.32 189.633 90.8 189.633 91.4C189.633 92.0533 189.826 92.5333 190.213 92.84C190.6 93.1467 191.04 93.3 191.533 93.3ZM202.522 94.2C201.775 94.2 201.189 94.08 200.762 93.84C200.335 93.6 200.022 93.3533 199.822 93.1H199.722L199.022 94H198.022V83.2C198.022 82.6 197.935 82.12 197.762 81.76C197.602 81.3867 197.222 81.2 196.622 81.2H196.222V80.8H198.022C198.489 80.8 198.849 80.86 199.102 80.98C199.369 81.1 199.555 81.3333 199.662 81.68C199.769 82.0267 199.822 82.5333 199.822 83.2V85C200.129 84.8533 200.482 84.72 200.882 84.6C201.282 84.4667 201.762 84.4 202.322 84.4C203.189 84.4 203.902 84.62 204.462 85.06C205.022 85.5 205.435 86.0933 205.702 86.84C205.982 87.5733 206.122 88.3933 206.122 89.3C206.122 90.1933 205.989 91.0133 205.722 91.76C205.455 92.5067 205.055 93.1 204.522 93.54C203.989 93.98 203.322 94.2 202.522 94.2ZM201.922 93.4C202.455 93.4 202.889 93.22 203.222 92.86C203.569 92.4867 203.822 91.9933 203.982 91.38C204.142 90.7533 204.222 90.06 204.222 89.3C204.222 88.5267 204.135 87.8333 203.962 87.22C203.802 86.6067 203.535 86.12 203.162 85.76C202.802 85.3867 202.322 85.2 201.722 85.2C201.415 85.2 201.095 85.2667 200.762 85.4C200.442 85.52 200.129 85.6533 199.822 85.8V92.2C200.022 92.5067 200.282 92.7867 200.602 93.04C200.935 93.28 201.375 93.4 201.922 93.4ZM210.731 94.2C210.451 94.2 210.144 94.1533 209.811 94.06C209.491 93.98 209.177 93.8333 208.871 93.62C208.564 93.4067 208.311 93.12 208.111 92.76C207.924 92.4 207.831 91.9467 207.831 91.4C207.831 90.6667 208.064 90.1 208.531 89.7C209.011 89.3 209.637 89.02 210.411 88.86C211.197 88.6867 212.037 88.6 212.931 88.6H213.531C213.531 87.6667 213.437 86.96 213.251 86.48C213.064 85.9867 212.811 85.6533 212.491 85.48C212.184 85.2933 211.831 85.2 211.431 85.2C210.871 85.2 210.397 85.32 210.011 85.56C209.637 85.8 209.377 86.2467 209.231 86.9H208.331C208.331 86.5533 208.351 86.2333 208.391 85.94C208.431 85.6333 208.577 85.3533 208.831 85.1C209.084 84.8467 209.497 84.6667 210.071 84.56C210.644 84.4533 211.231 84.4 211.831 84.4C212.284 84.4 212.717 84.4533 213.131 84.56C213.557 84.6667 213.931 84.8667 214.251 85.16C214.584 85.44 214.844 85.86 215.031 86.42C215.231 86.9667 215.331 87.6933 215.331 88.6V94H214.331L213.631 93.1H213.531C213.331 93.3533 213.004 93.6 212.551 93.84C212.097 94.08 211.491 94.2 210.731 94.2ZM211.631 93.3C212.124 93.3 212.511 93.18 212.791 92.94C213.084 92.6867 213.331 92.4067 213.531 92.1V89.4H212.931C211.931 89.4 211.144 89.5867 210.571 89.96C210.011 90.32 209.731 90.8 209.731 91.4C209.731 92.0533 209.924 92.5333 210.311 92.84C210.697 93.1467 211.137 93.3 211.631 93.3Z" fill="#312501"/>
</svg>
