<svg width="242" height="98" viewBox="0 0 242 98" fill="none" xmlns="http://www.w3.org/2000/svg">
<mask id="path-1-outside-1_102_23" maskUnits="userSpaceOnUse" x="0" y="0" width="242" height="98" fill="black">
<rect fill="white" width="242" height="98"/>
<path d="M148.284 62.1739L149.584 63.7895C143.153 69.4931 137.64 72.345 133.047 72.345C131.183 72.345 129.753 71.7575 128.755 70.5825C127.784 69.4075 127.298 67.5226 127.298 64.9278C127.298 59.6892 129.005 54.4752 132.417 49.2856C136.249 43.3861 140.83 40.4364 146.158 40.4364C148.022 40.4364 149.439 40.877 150.41 41.7582C151.408 42.615 151.907 43.8023 151.907 45.32C151.907 46.9111 151.316 48.4778 150.135 50.02C148.954 51.5622 146.841 53.1655 143.796 54.8301C142.273 55.6379 139.018 57.0944 134.031 59.1997C133.795 60.5215 133.677 61.7822 133.677 62.9817C133.677 64.7197 133.966 65.9314 134.543 66.6168C135.147 67.3023 136.013 67.645 137.142 67.645C138.218 67.645 139.399 67.3635 140.685 66.8004C142.418 66.0416 144.951 64.4994 148.284 62.1739ZM134.504 56.8497C138.73 55.0872 141.906 53.19 144.032 51.1582C145.476 49.7385 146.198 48.3309 146.198 46.9356C146.198 45.883 145.896 45.0507 145.292 44.4387C144.714 43.8023 143.953 43.484 143.008 43.484C142.037 43.484 141.092 43.8267 140.173 44.5122C138.94 45.4179 137.903 46.7887 137.063 48.6247C135.856 51.3174 135.002 54.059 134.504 56.8497ZM181.909 39.8856L184.508 39.3715L181.555 48.6614C180.373 52.3577 179.258 56.6171 178.208 61.4395C177.63 64.0588 177.342 65.7478 177.342 66.5067C177.342 67.2655 177.67 67.645 178.326 67.645C178.746 67.645 179.415 67.3879 180.334 66.8739C181.961 65.9681 183.523 64.8421 185.019 63.4957L186.279 64.9278C183.287 67.4736 181.371 69.0158 180.531 69.5543C178.851 70.6314 177.25 71.427 175.727 71.9411C174.73 72.2838 173.759 72.4551 172.814 72.4551C172.131 72.4551 171.619 72.3082 171.278 72.0145C170.937 71.7207 170.766 71.2924 170.766 70.7293C170.766 70.3622 170.871 69.8603 171.081 69.2239L172.656 64.2301C170.399 66.7515 167.708 68.9179 164.585 70.7293C162.669 71.8554 160.91 72.4184 159.309 72.4184C157.786 72.4184 156.618 71.9166 155.805 70.9129C154.702 69.5666 154.151 67.8041 154.151 65.6254C154.151 63.0306 154.886 60.1421 156.356 56.9598C157.852 53.7775 159.847 50.889 162.341 48.2942C164.834 45.6994 167.459 43.79 170.215 42.5661C172.341 41.6359 175.071 41.1707 178.405 41.1707C179.245 41.1707 180.098 41.2197 180.964 41.3176L181.909 39.8856ZM177.027 45.5036C175.609 45.2343 174.415 45.0997 173.444 45.0997C171.081 45.0997 169.021 45.7116 167.262 46.9356C165.503 48.1351 163.863 50.3137 162.341 53.4715C160.844 56.6049 160.096 59.7382 160.096 62.8715C160.096 64.5361 160.398 65.7356 161.002 66.47C161.606 67.2043 162.393 67.5715 163.364 67.5715C165.175 67.5715 167.118 66.6658 169.191 64.8543C171.265 63.0184 172.788 60.3869 173.759 56.9598L177.027 45.5036ZM206.202 40.4731C208.538 40.4731 210.336 40.9015 211.596 41.7582C212.882 42.5905 213.526 43.5575 213.526 44.659C213.526 45.32 213.25 45.8952 212.699 46.3848C212.174 46.8744 211.531 47.1192 210.769 47.1192C210.271 47.1192 209.838 47.0213 209.47 46.8254C209.103 46.6051 208.578 46.0788 207.895 45.2465C206.609 43.6554 205.336 42.8598 204.076 42.8598C203 42.8598 202.042 43.2515 201.202 44.0348C200.388 44.7937 199.981 45.7484 199.981 46.8989C199.981 47.9025 200.244 48.8817 200.769 49.8364C201.294 50.7666 202.619 52.2843 204.745 54.3895C207.659 57.278 209.116 60.0197 209.116 62.6145C209.116 65.2093 207.935 67.4858 205.572 69.4442C203.21 71.378 200.165 72.345 196.438 72.345C193.314 72.345 190.991 71.7575 189.469 70.5825C187.946 69.383 187.185 67.9142 187.185 66.1762C187.185 65.3194 187.474 64.6095 188.051 64.0465C188.629 63.4835 189.337 63.202 190.177 63.202C190.912 63.202 191.542 63.4346 192.067 63.8997C192.592 64.3403 192.855 64.8666 192.855 65.4786C192.855 65.7233 192.828 66.0416 192.776 66.4332C192.75 66.7515 192.737 67.0207 192.737 67.2411C192.737 68.0489 193.104 68.7343 193.839 69.2973C194.548 69.8603 195.519 70.1418 196.753 70.1418C198.17 70.1418 199.417 69.9215 200.493 69.4809C201.569 69.0158 202.409 68.3304 203.013 67.4247C203.617 66.4944 203.919 65.5765 203.919 64.6707C203.919 63.7895 203.63 62.9082 203.052 62.027C202.501 61.1457 201.241 59.6892 199.273 57.6575C196.543 54.8179 195.178 52.0885 195.178 49.4692C195.178 47.0702 196.215 44.9773 198.288 43.1903C200.362 41.3788 203 40.4731 206.202 40.4731ZM235.378 62.1739L236.677 63.7895C230.246 69.4931 224.734 72.345 220.14 72.345C218.277 72.345 216.846 71.7575 215.849 70.5825C214.877 69.4075 214.392 67.5226 214.392 64.9278C214.392 59.6892 216.098 54.4752 219.51 49.2856C223.343 43.3861 227.923 40.4364 233.252 40.4364C235.115 40.4364 236.533 40.877 237.504 41.7582C238.501 42.615 239 43.8023 239 45.32C239 46.9111 238.409 48.4778 237.228 50.02C236.047 51.5622 233.934 53.1655 230.889 54.8301C229.367 55.6379 226.112 57.0944 221.125 59.1997C220.888 60.5215 220.77 61.7822 220.77 62.9817C220.77 64.7197 221.059 65.9314 221.636 66.6168C222.24 67.3023 223.106 67.645 224.235 67.645C225.311 67.645 226.492 67.3635 227.779 66.8004C229.511 66.0416 232.044 64.4994 235.378 62.1739ZM221.597 56.8497C225.823 55.0872 228.999 53.19 231.125 51.1582C232.569 49.7385 233.291 48.3309 233.291 46.9356C233.291 45.883 232.989 45.0507 232.385 44.4387C231.808 43.8023 231.047 43.484 230.102 43.484C229.13 43.484 228.186 43.8267 227.267 44.5122C226.033 45.4179 224.996 46.7887 224.156 48.6247C222.949 51.3174 222.096 54.059 221.597 56.8497Z"/>
</mask>
<path d="M148.284 62.1739L149.584 63.7895C143.153 69.4931 137.64 72.345 133.047 72.345C131.183 72.345 129.753 71.7575 128.755 70.5825C127.784 69.4075 127.298 67.5226 127.298 64.9278C127.298 59.6892 129.005 54.4752 132.417 49.2856C136.249 43.3861 140.83 40.4364 146.158 40.4364C148.022 40.4364 149.439 40.877 150.41 41.7582C151.408 42.615 151.907 43.8023 151.907 45.32C151.907 46.9111 151.316 48.4778 150.135 50.02C148.954 51.5622 146.841 53.1655 143.796 54.8301C142.273 55.6379 139.018 57.0944 134.031 59.1997C133.795 60.5215 133.677 61.7822 133.677 62.9817C133.677 64.7197 133.966 65.9314 134.543 66.6168C135.147 67.3023 136.013 67.645 137.142 67.645C138.218 67.645 139.399 67.3635 140.685 66.8004C142.418 66.0416 144.951 64.4994 148.284 62.1739ZM134.504 56.8497C138.73 55.0872 141.906 53.19 144.032 51.1582C145.476 49.7385 146.198 48.3309 146.198 46.9356C146.198 45.883 145.896 45.0507 145.292 44.4387C144.714 43.8023 143.953 43.484 143.008 43.484C142.037 43.484 141.092 43.8267 140.173 44.5122C138.94 45.4179 137.903 46.7887 137.063 48.6247C135.856 51.3174 135.002 54.059 134.504 56.8497ZM181.909 39.8856L184.508 39.3715L181.555 48.6614C180.373 52.3577 179.258 56.6171 178.208 61.4395C177.63 64.0588 177.342 65.7478 177.342 66.5067C177.342 67.2655 177.67 67.645 178.326 67.645C178.746 67.645 179.415 67.3879 180.334 66.8739C181.961 65.9681 183.523 64.8421 185.019 63.4957L186.279 64.9278C183.287 67.4736 181.371 69.0158 180.531 69.5543C178.851 70.6314 177.25 71.427 175.727 71.9411C174.73 72.2838 173.759 72.4551 172.814 72.4551C172.131 72.4551 171.619 72.3082 171.278 72.0145C170.937 71.7207 170.766 71.2924 170.766 70.7293C170.766 70.3622 170.871 69.8603 171.081 69.2239L172.656 64.2301C170.399 66.7515 167.708 68.9179 164.585 70.7293C162.669 71.8554 160.91 72.4184 159.309 72.4184C157.786 72.4184 156.618 71.9166 155.805 70.9129C154.702 69.5666 154.151 67.8041 154.151 65.6254C154.151 63.0306 154.886 60.1421 156.356 56.9598C157.852 53.7775 159.847 50.889 162.341 48.2942C164.834 45.6994 167.459 43.79 170.215 42.5661C172.341 41.6359 175.071 41.1707 178.405 41.1707C179.245 41.1707 180.098 41.2197 180.964 41.3176L181.909 39.8856ZM177.027 45.5036C175.609 45.2343 174.415 45.0997 173.444 45.0997C171.081 45.0997 169.021 45.7116 167.262 46.9356C165.503 48.1351 163.863 50.3137 162.341 53.4715C160.844 56.6049 160.096 59.7382 160.096 62.8715C160.096 64.5361 160.398 65.7356 161.002 66.47C161.606 67.2043 162.393 67.5715 163.364 67.5715C165.175 67.5715 167.118 66.6658 169.191 64.8543C171.265 63.0184 172.788 60.3869 173.759 56.9598L177.027 45.5036ZM206.202 40.4731C208.538 40.4731 210.336 40.9015 211.596 41.7582C212.882 42.5905 213.526 43.5575 213.526 44.659C213.526 45.32 213.25 45.8952 212.699 46.3848C212.174 46.8744 211.531 47.1192 210.769 47.1192C210.271 47.1192 209.838 47.0213 209.47 46.8254C209.103 46.6051 208.578 46.0788 207.895 45.2465C206.609 43.6554 205.336 42.8598 204.076 42.8598C203 42.8598 202.042 43.2515 201.202 44.0348C200.388 44.7937 199.981 45.7484 199.981 46.8989C199.981 47.9025 200.244 48.8817 200.769 49.8364C201.294 50.7666 202.619 52.2843 204.745 54.3895C207.659 57.278 209.116 60.0197 209.116 62.6145C209.116 65.2093 207.935 67.4858 205.572 69.4442C203.21 71.378 200.165 72.345 196.438 72.345C193.314 72.345 190.991 71.7575 189.469 70.5825C187.946 69.383 187.185 67.9142 187.185 66.1762C187.185 65.3194 187.474 64.6095 188.051 64.0465C188.629 63.4835 189.337 63.202 190.177 63.202C190.912 63.202 191.542 63.4346 192.067 63.8997C192.592 64.3403 192.855 64.8666 192.855 65.4786C192.855 65.7233 192.828 66.0416 192.776 66.4332C192.75 66.7515 192.737 67.0207 192.737 67.2411C192.737 68.0489 193.104 68.7343 193.839 69.2973C194.548 69.8603 195.519 70.1418 196.753 70.1418C198.17 70.1418 199.417 69.9215 200.493 69.4809C201.569 69.0158 202.409 68.3304 203.013 67.4247C203.617 66.4944 203.919 65.5765 203.919 64.6707C203.919 63.7895 203.63 62.9082 203.052 62.027C202.501 61.1457 201.241 59.6892 199.273 57.6575C196.543 54.8179 195.178 52.0885 195.178 49.4692C195.178 47.0702 196.215 44.9773 198.288 43.1903C200.362 41.3788 203 40.4731 206.202 40.4731ZM235.378 62.1739L236.677 63.7895C230.246 69.4931 224.734 72.345 220.14 72.345C218.277 72.345 216.846 71.7575 215.849 70.5825C214.877 69.4075 214.392 67.5226 214.392 64.9278C214.392 59.6892 216.098 54.4752 219.51 49.2856C223.343 43.3861 227.923 40.4364 233.252 40.4364C235.115 40.4364 236.533 40.877 237.504 41.7582C238.501 42.615 239 43.8023 239 45.32C239 46.9111 238.409 48.4778 237.228 50.02C236.047 51.5622 233.934 53.1655 230.889 54.8301C229.367 55.6379 226.112 57.0944 221.125 59.1997C220.888 60.5215 220.77 61.7822 220.77 62.9817C220.77 64.7197 221.059 65.9314 221.636 66.6168C222.24 67.3023 223.106 67.645 224.235 67.645C225.311 67.645 226.492 67.3635 227.779 66.8004C229.511 66.0416 232.044 64.4994 235.378 62.1739ZM221.597 56.8497C225.823 55.0872 228.999 53.19 231.125 51.1582C232.569 49.7385 233.291 48.3309 233.291 46.9356C233.291 45.883 232.989 45.0507 232.385 44.4387C231.808 43.8023 231.047 43.484 230.102 43.484C229.13 43.484 228.186 43.8267 227.267 44.5122C226.033 45.4179 224.996 46.7887 224.156 48.6247C222.949 51.3174 222.096 54.059 221.597 56.8497Z" fill="#EFE9E9" fill-opacity="0.94"/>
<path d="M148.284 62.1739L149.584 63.7895C143.153 69.4931 137.64 72.345 133.047 72.345C131.183 72.345 129.753 71.7575 128.755 70.5825C127.784 69.4075 127.298 67.5226 127.298 64.9278C127.298 59.6892 129.005 54.4752 132.417 49.2856C136.249 43.3861 140.83 40.4364 146.158 40.4364C148.022 40.4364 149.439 40.877 150.41 41.7582C151.408 42.615 151.907 43.8023 151.907 45.32C151.907 46.9111 151.316 48.4778 150.135 50.02C148.954 51.5622 146.841 53.1655 143.796 54.8301C142.273 55.6379 139.018 57.0944 134.031 59.1997C133.795 60.5215 133.677 61.7822 133.677 62.9817C133.677 64.7197 133.966 65.9314 134.543 66.6168C135.147 67.3023 136.013 67.645 137.142 67.645C138.218 67.645 139.399 67.3635 140.685 66.8004C142.418 66.0416 144.951 64.4994 148.284 62.1739ZM134.504 56.8497C138.73 55.0872 141.906 53.19 144.032 51.1582C145.476 49.7385 146.198 48.3309 146.198 46.9356C146.198 45.883 145.896 45.0507 145.292 44.4387C144.714 43.8023 143.953 43.484 143.008 43.484C142.037 43.484 141.092 43.8267 140.173 44.5122C138.94 45.4179 137.903 46.7887 137.063 48.6247C135.856 51.3174 135.002 54.059 134.504 56.8497ZM181.909 39.8856L184.508 39.3715L181.555 48.6614C180.373 52.3577 179.258 56.6171 178.208 61.4395C177.63 64.0588 177.342 65.7478 177.342 66.5067C177.342 67.2655 177.67 67.645 178.326 67.645C178.746 67.645 179.415 67.3879 180.334 66.8739C181.961 65.9681 183.523 64.8421 185.019 63.4957L186.279 64.9278C183.287 67.4736 181.371 69.0158 180.531 69.5543C178.851 70.6314 177.25 71.427 175.727 71.9411C174.73 72.2838 173.759 72.4551 172.814 72.4551C172.131 72.4551 171.619 72.3082 171.278 72.0145C170.937 71.7207 170.766 71.2924 170.766 70.7293C170.766 70.3622 170.871 69.8603 171.081 69.2239L172.656 64.2301C170.399 66.7515 167.708 68.9179 164.585 70.7293C162.669 71.8554 160.91 72.4184 159.309 72.4184C157.786 72.4184 156.618 71.9166 155.805 70.9129C154.702 69.5666 154.151 67.8041 154.151 65.6254C154.151 63.0306 154.886 60.1421 156.356 56.9598C157.852 53.7775 159.847 50.889 162.341 48.2942C164.834 45.6994 167.459 43.79 170.215 42.5661C172.341 41.6359 175.071 41.1707 178.405 41.1707C179.245 41.1707 180.098 41.2197 180.964 41.3176L181.909 39.8856ZM177.027 45.5036C175.609 45.2343 174.415 45.0997 173.444 45.0997C171.081 45.0997 169.021 45.7116 167.262 46.9356C165.503 48.1351 163.863 50.3137 162.341 53.4715C160.844 56.6049 160.096 59.7382 160.096 62.8715C160.096 64.5361 160.398 65.7356 161.002 66.47C161.606 67.2043 162.393 67.5715 163.364 67.5715C165.175 67.5715 167.118 66.6658 169.191 64.8543C171.265 63.0184 172.788 60.3869 173.759 56.9598L177.027 45.5036ZM206.202 40.4731C208.538 40.4731 210.336 40.9015 211.596 41.7582C212.882 42.5905 213.526 43.5575 213.526 44.659C213.526 45.32 213.25 45.8952 212.699 46.3848C212.174 46.8744 211.531 47.1192 210.769 47.1192C210.271 47.1192 209.838 47.0213 209.47 46.8254C209.103 46.6051 208.578 46.0788 207.895 45.2465C206.609 43.6554 205.336 42.8598 204.076 42.8598C203 42.8598 202.042 43.2515 201.202 44.0348C200.388 44.7937 199.981 45.7484 199.981 46.8989C199.981 47.9025 200.244 48.8817 200.769 49.8364C201.294 50.7666 202.619 52.2843 204.745 54.3895C207.659 57.278 209.116 60.0197 209.116 62.6145C209.116 65.2093 207.935 67.4858 205.572 69.4442C203.21 71.378 200.165 72.345 196.438 72.345C193.314 72.345 190.991 71.7575 189.469 70.5825C187.946 69.383 187.185 67.9142 187.185 66.1762C187.185 65.3194 187.474 64.6095 188.051 64.0465C188.629 63.4835 189.337 63.202 190.177 63.202C190.912 63.202 191.542 63.4346 192.067 63.8997C192.592 64.3403 192.855 64.8666 192.855 65.4786C192.855 65.7233 192.828 66.0416 192.776 66.4332C192.75 66.7515 192.737 67.0207 192.737 67.2411C192.737 68.0489 193.104 68.7343 193.839 69.2973C194.548 69.8603 195.519 70.1418 196.753 70.1418C198.17 70.1418 199.417 69.9215 200.493 69.4809C201.569 69.0158 202.409 68.3304 203.013 67.4247C203.617 66.4944 203.919 65.5765 203.919 64.6707C203.919 63.7895 203.63 62.9082 203.052 62.027C202.501 61.1457 201.241 59.6892 199.273 57.6575C196.543 54.8179 195.178 52.0885 195.178 49.4692C195.178 47.0702 196.215 44.9773 198.288 43.1903C200.362 41.3788 203 40.4731 206.202 40.4731ZM235.378 62.1739L236.677 63.7895C230.246 69.4931 224.734 72.345 220.14 72.345C218.277 72.345 216.846 71.7575 215.849 70.5825C214.877 69.4075 214.392 67.5226 214.392 64.9278C214.392 59.6892 216.098 54.4752 219.51 49.2856C223.343 43.3861 227.923 40.4364 233.252 40.4364C235.115 40.4364 236.533 40.877 237.504 41.7582C238.501 42.615 239 43.8023 239 45.32C239 46.9111 238.409 48.4778 237.228 50.02C236.047 51.5622 233.934 53.1655 230.889 54.8301C229.367 55.6379 226.112 57.0944 221.125 59.1997C220.888 60.5215 220.77 61.7822 220.77 62.9817C220.77 64.7197 221.059 65.9314 221.636 66.6168C222.24 67.3023 223.106 67.645 224.235 67.645C225.311 67.645 226.492 67.3635 227.779 66.8004C229.511 66.0416 232.044 64.4994 235.378 62.1739ZM221.597 56.8497C225.823 55.0872 228.999 53.19 231.125 51.1582C232.569 49.7385 233.291 48.3309 233.291 46.9356C233.291 45.883 232.989 45.0507 232.385 44.4387C231.808 43.8023 231.047 43.484 230.102 43.484C229.13 43.484 228.186 43.8267 227.267 44.5122C226.033 45.4179 224.996 46.7887 224.156 48.6247C222.949 51.3174 222.096 54.059 221.597 56.8497Z" fill="url(#paint0_linear_102_23)"/>
<path d="M33.9185 15.1208L32.4529 14.8012L31.9508 17.1035L34.2493 16.5839L33.9185 15.1208ZM34.7584 11.2694L34.4457 9.8024L33.4991 10.0042L33.2929 10.9498L34.7584 11.2694ZM48.9678 10.6167L48.8979 9.11829L48.8664 9.11976L48.8351 9.12255L48.9678 10.6167ZM56.7374 9.83333H58.2374V8.12342L56.5421 8.34611L56.7374 9.83333ZM65.2384 53.6347L63.9051 54.3219L64.4318 55.3439L65.5555 55.1008L65.2384 53.6347ZM81.8662 15.1208L83.2493 14.5402L83.1044 14.1952L82.8146 13.9587L81.8662 15.1208ZM94.2556 3.89306L93.6306 2.52949L93.4784 2.59923L93.3454 2.7008L94.2556 3.89306ZM107.975 3.175L107.091 4.38662L107.107 4.39854L107.124 4.41002L107.975 3.175ZM107.975 15.1208L106.531 15.5275L107.217 17.9615L109.024 16.1929L107.975 15.1208ZM102.336 7.44202L102.075 8.91914L102.266 8.95287L102.459 8.93697L102.336 7.44202ZM94.2556 10.4208L93.6129 9.06549L92.7675 9.46641L92.7557 10.4021L94.2556 10.4208ZM105.134 28.6497L104.698 27.2143L104.555 27.2578L104.423 27.3285L105.134 28.6497ZM90.8336 44.6433C90.5005 45.4018 90.8453 46.2867 91.6038 46.6199C92.3623 46.953 93.2472 46.6082 93.5804 45.8497L90.8336 44.6433ZM70.2342 73.7149C70.7475 73.0646 70.6364 72.1214 69.9861 71.6082C69.3359 71.0949 68.3926 71.206 67.8794 71.8563L70.2342 73.7149ZM69.0568 83.4667L67.5585 83.3953L67.499 84.6437L68.7162 84.9275L69.0568 83.4667ZM82.7062 83.7931L84.1694 84.1234L84.6192 82.1306L82.5832 82.2981L82.7062 83.7931ZM81.8662 87.5139L81.9709 89.0102L83.0837 88.9324L83.3294 87.8442L81.8662 87.5139ZM72.2067 87.3181L72.0398 88.8087L72.0524 88.8102L72.065 88.8114L72.2067 87.3181ZM58.2773 87.5139L56.8027 87.2389L56.436 89.2053L58.4265 89.0065L58.2773 87.5139ZM58.0673 64.7972L56.5837 65.0182L56.584 65.0202L58.0673 64.7972ZM54.9175 51.4806L56.3398 51.004L55.4425 48.3263L53.7263 50.569L54.9175 51.4806ZM43.578 66.2986L44.7643 67.2166L44.7692 67.2102L43.578 66.2986ZM3.32994 94.825L2.33678 95.9491L2.35103 95.9617L2.3656 95.9739L3.32994 94.825ZM3.39993 89.1458L2.46814 87.9704L2.45168 87.9834L2.4356 87.9969L3.39993 89.1458ZM8.71968 87.5792L8.89337 89.0691L8.90136 89.0681L8.71968 87.5792ZM21.5991 82.8139L20.7281 81.5926L20.727 81.5935L21.5991 82.8139ZM39.8682 63.4264L41.0518 64.3478L41.0534 64.3458L39.8682 63.4264ZM53.2376 46.1931L54.4227 47.1125L54.9176 46.4746L54.6578 45.7103L53.2376 46.1931ZM46.4479 14.2069H47.9479V12.7721L46.5144 12.7084L46.4479 14.2069ZM77.8851 72.0145L77.0472 70.7704L73.5298 73.1394L77.7545 73.5088L77.8851 72.0145ZM86.3897 64.9645L85.0743 64.2437L85.0475 64.2926L85.0244 64.3434L86.3897 64.9645ZM89.9013 54.8301L88.4473 54.4616L88.445 54.4706L88.4428 54.4797L89.9013 54.8301ZM94.1069 40.3262L92.7531 39.6802L92.7492 39.6885L94.1069 40.3262ZM102.021 30.4122L101.179 29.1707L101.174 29.174L102.021 30.4122ZM118.991 33.5L120.45 33.8478L120.491 33.6763L120.491 33.5L118.991 33.5ZM113.912 32.395L112.555 33.0356L113.912 32.395ZM111.755 30.2L112.369 28.8316L112.076 28.7H111.755V30.2ZM108.874 30.4122L108.403 28.9882L108.874 30.4122ZM106.155 31.2444L106.856 32.5708L106.86 32.5682L106.155 31.2444ZM102.795 34.3778L101.611 33.4565L101.609 33.4601L102.795 34.3778ZM99.7766 40.2528L98.3963 39.6656L98.3913 39.6774L98.3865 39.6893L99.7766 40.2528ZM96.6661 50.1668L95.2194 49.7707L95.2176 49.7772L96.6661 50.1668ZM92.1776 64.7442L93.5561 65.3355L93.5572 65.3329L92.1776 64.7442ZM89.5002 69.0036L88.4031 67.9806L85.1799 71.4375L89.8067 70.4719L89.5002 69.0036ZM102.336 68.0856L102.121 69.57L102.136 69.5722L102.151 69.5741L102.336 68.0856ZM108.517 69.2606L108.841 67.796L108.835 67.7946L108.517 69.2606ZM116.392 69.2606L117.347 70.4177L117.349 70.4154L116.392 69.2606ZM116.904 65.3317L115.529 65.9307L115.532 65.9376L116.904 65.3317ZM117.022 61.9168L118.009 63.0461L118.027 63.0303L118.045 63.0138L117.022 61.9168ZM120.684 62.3207L119.532 63.2815L119.541 63.2922L119.55 63.3028L120.684 62.3207ZM35.384 15.4405L36.224 11.5891L33.2929 10.9498L32.4529 14.8012L35.384 15.4405ZM35.0712 12.7365C36.5718 12.4166 38.4211 12.2472 40.6382 12.2472V9.24722C38.2821 9.24722 36.2116 9.42599 34.4457 9.8024L35.0712 12.7365ZM40.6382 12.2472C45.1798 12.2472 48.0378 12.2052 49.1005 12.1108L48.8351 9.12255C47.9379 9.20223 45.2428 9.24722 40.6382 9.24722V12.2472ZM49.0376 12.115C50.9666 12.0251 53.6048 11.7577 56.9327 11.3206L56.5421 8.34611C53.2436 8.77936 50.7021 9.03417 48.8979 9.11829L49.0376 12.115ZM55.2374 9.83333C55.2374 13.9784 55.842 22.0414 57.2115 30.554C58.5761 39.0356 60.7297 48.1609 63.9051 54.3219L66.5717 52.9475C63.626 47.2321 61.5291 38.5039 60.1734 30.0775C58.8228 21.6822 58.2374 13.7827 58.2374 9.83333H55.2374ZM65.5555 55.1008C73.3584 53.413 78.4951 50.0287 81.7164 45.7793C84.9222 41.5504 86.1176 36.6148 86.326 32.0066C86.5342 27.4014 85.7616 23.041 84.9499 19.8538C84.5427 18.2549 84.1222 16.9379 83.8018 16.0163C83.6414 15.5553 83.5059 15.1924 83.4092 14.9418C83.3608 14.8165 83.3222 14.7192 83.2949 14.6517C83.2813 14.618 83.2706 14.5916 83.2629 14.573C83.259 14.5636 83.256 14.5562 83.2537 14.5507C83.2525 14.548 83.2516 14.5458 83.2509 14.544C83.2505 14.5431 83.2501 14.5421 83.2499 14.5417C83.2496 14.5409 83.2493 14.5402 81.8662 15.1208C80.4832 15.7015 80.483 15.701 80.4828 15.7007C80.4828 15.7007 80.4827 15.7005 80.4828 15.7006C80.4829 15.7008 80.4831 15.7014 80.4836 15.7026C80.4846 15.7049 80.4863 15.7091 80.4888 15.7151C80.4938 15.7273 80.5019 15.747 80.5128 15.774C80.5345 15.828 80.5677 15.9112 80.6104 16.022C80.6959 16.2435 80.8197 16.5747 80.9682 17.0016C81.2653 17.856 81.6598 19.0906 82.0427 20.5942C82.8113 23.6122 83.5194 27.6608 83.329 31.8711C83.1388 36.0784 82.0564 40.3648 79.3257 43.967C76.6105 47.5487 72.152 50.6046 64.9213 52.1686L65.5555 55.1008ZM81.8662 15.1208C82.8146 13.9587 82.8211 13.964 82.8275 13.9694C82.8297 13.9712 82.8362 13.9766 82.8405 13.9803C82.8491 13.9876 82.8577 13.9952 82.8662 14.0028C82.8833 14.0181 82.9003 14.034 82.9171 14.0505C82.9507 14.0836 82.9834 14.1189 83.0148 14.1565C83.0779 14.2321 83.1338 14.3146 83.181 14.4031C83.2771 14.5836 83.3231 14.7633 83.3379 14.9212C83.3658 15.2178 83.2823 15.4048 83.2804 15.4092C83.2739 15.4242 83.303 15.3537 83.4348 15.1736C83.5631 14.9982 83.7696 14.745 84.0943 14.3951C85.4117 12.9758 88.4239 10.2325 95.1659 5.08531L93.3454 2.7008C86.578 7.86747 83.3955 10.7381 81.8955 12.3542C81.1618 13.1447 80.7349 13.7344 80.5242 14.2246C80.4162 14.4758 80.3147 14.8148 80.351 15.2017C80.3701 15.4047 80.427 15.6141 80.5329 15.813C80.5849 15.9107 80.6455 15.9996 80.7121 16.0793C80.7451 16.119 80.7792 16.1557 80.8138 16.1897C80.8311 16.2067 80.8484 16.223 80.8658 16.2385C80.8745 16.2463 80.8832 16.2539 80.8919 16.2613C80.8962 16.265 80.9027 16.2705 80.9049 16.2723C80.9114 16.2777 80.9179 16.283 81.8662 15.1208ZM94.8807 5.25662C97.4344 4.08604 100.137 3.5 103.005 3.5V0.5C99.7134 0.5 96.5833 1.176 93.6306 2.52949L94.8807 5.25662ZM103.005 3.5C105.124 3.5 106.397 3.88047 107.091 4.38662L108.859 1.96338C107.406 0.902858 105.366 0.5 103.005 0.5V3.5ZM107.124 4.41002C107.824 4.89296 108.085 5.42661 108.085 6.1125H111.085C111.085 4.36136 110.272 2.93667 108.826 1.93998L107.124 4.41002ZM108.085 6.1125C108.085 6.40397 108.133 6.7197 108.174 6.96271C108.212 7.19017 108.282 7.56481 108.328 7.82748C108.434 8.44425 108.532 9.13154 108.54 9.85621C108.555 11.2855 108.222 12.7807 106.926 14.0488L109.024 16.1929C111.088 14.1731 111.56 11.7734 111.54 9.82512C111.53 8.86101 111.4 7.98884 111.284 7.31604C111.218 6.93393 111.177 6.73125 111.133 6.46643C111.114 6.3541 111.101 6.26793 111.093 6.20093C111.085 6.13057 111.085 6.10628 111.085 6.1125H108.085ZM109.419 14.7142C108.794 12.4974 108.13 10.3057 107.147 8.70859C106.643 7.88852 106.005 7.13854 105.163 6.62069C104.297 6.08754 103.305 5.8572 102.213 5.94708L102.459 8.93697C102.953 8.89629 103.301 8.9975 103.591 9.17588C103.906 9.36955 104.242 9.71106 104.592 10.2803C105.319 11.4618 105.887 13.2401 106.531 15.5275L109.419 14.7142ZM102.597 5.96491C99.4227 5.40399 97.6037 5.79256 96.2043 6.85585C95.6305 7.29189 95.1093 7.87772 94.7913 8.19361C94.4261 8.55648 94.0854 8.84146 93.6129 9.06549L94.8983 11.7762C95.8025 11.3474 96.4213 10.8031 96.9057 10.3219C97.4374 9.79364 97.6561 9.52054 98.0193 9.24451C98.4942 8.88367 99.3387 8.43562 102.075 8.91914L102.597 5.96491ZM92.7557 10.4021C92.7109 13.9849 94.6454 16.7112 96.9829 18.7736C99.3023 20.82 102.214 22.3848 104.473 23.6203C105.638 24.2572 106.601 24.7906 107.317 25.2782C107.671 25.5197 107.92 25.7204 108.084 25.8837C108.256 26.0557 108.26 26.1142 108.241 26.058C108.203 25.9467 108.208 25.7836 108.266 25.6627C108.299 25.5956 108.289 25.6657 108.045 25.8389C107.542 26.1953 106.523 26.6602 104.698 27.2143L105.569 30.085C107.447 29.515 108.86 28.9384 109.78 28.2864C110.247 27.9554 110.696 27.5297 110.967 26.9688C111.264 26.3542 111.288 25.6994 111.081 25.0922C110.894 24.5403 110.542 24.0989 110.203 23.7608C109.856 23.4139 109.439 23.0942 109.006 22.7988C108.145 22.2126 107.043 21.6064 105.913 20.9882C103.582 19.7136 100.988 18.3068 98.9677 16.5241C96.9654 14.7574 95.726 12.797 95.7555 10.4396L92.7557 10.4021ZM104.423 27.3285C100.096 29.6556 97.6828 31.5411 95.8433 34.2005C94.0891 36.7366 92.884 39.9751 90.8336 44.6433L93.5804 45.8497C95.7485 40.9134 96.773 38.13 98.3106 35.9071C99.7629 33.8075 101.704 32.1969 105.844 29.9708L104.423 27.3285ZM67.8794 71.8563C66.133 74.0689 66.2563 76.8146 66.616 78.9093C66.7995 79.9781 67.07 81.0058 67.2653 81.8026C67.4845 82.6968 67.5694 83.1678 67.5585 83.3953L70.5551 83.5381C70.5909 82.7864 70.3667 81.8539 70.179 81.0884C69.9675 80.2254 69.7334 79.3371 69.5727 78.4016C69.2441 76.4879 69.3208 74.8723 70.2342 73.7149L67.8794 71.8563ZM68.7162 84.9275C70.8755 85.4309 73.0197 85.6847 75.1465 85.6847V82.6847C73.2603 82.6847 71.3446 82.4598 69.3974 82.0058L68.7162 84.9275ZM75.1465 85.6847C77.0728 85.6847 79.6392 85.5505 82.8292 85.288L82.5832 82.2981C79.4267 82.5578 76.9534 82.6847 75.1465 82.6847V85.6847ZM81.243 83.4627L80.403 87.1836L83.3294 87.8442L84.1694 84.1234L81.243 83.4627ZM81.7616 86.0175C79.8821 86.149 78.7239 86.2097 78.2264 86.2097V89.2097C78.8488 89.2097 80.1172 89.1399 81.9709 89.0102L81.7616 86.0175ZM78.2264 86.2097C77.0425 86.2097 75.0963 86.0854 72.3483 85.8248L72.065 88.8114C74.8235 89.073 76.8904 89.2097 78.2264 89.2097V86.2097ZM72.3735 85.8274C70.0103 85.5629 68.0134 85.4264 66.3969 85.4264V88.4264C67.8603 88.4264 69.7365 88.551 72.0398 88.8087L72.3735 85.8274ZM66.3969 85.4264C64.8191 85.4264 62.0428 85.6302 58.1282 86.0213L58.4265 89.0065C62.3515 88.6143 64.9883 88.4264 66.3969 88.4264V85.4264ZM59.7519 87.7889C60.3237 84.7227 60.6173 81.9728 60.6173 79.55H57.6173C57.6173 81.7401 57.3509 84.2996 56.8027 87.2389L59.7519 87.7889ZM60.6173 79.55C60.6173 74.304 60.2628 69.3114 59.5507 64.5742L56.584 65.0202C57.2718 69.596 57.6173 74.4386 57.6173 79.55H60.6173ZM59.551 64.5763C58.8391 59.7961 57.7697 55.2712 56.3398 51.004L53.4952 51.9571C54.8652 56.0455 55.8957 60.3983 56.5837 65.0182L59.551 64.5763ZM53.7263 50.569L42.3868 65.387L44.7692 67.2102L56.1087 52.3921L53.7263 50.569ZM42.3917 65.3806C32.5837 78.0555 25.2648 85.9975 20.3876 89.4193L22.1106 91.8752C27.4062 88.1599 34.9733 79.8695 44.7643 67.2166L42.3917 65.3806ZM20.3876 89.4193C15.4489 92.8842 11.0343 94.5 7.10976 94.5V97.5C11.8648 97.5 16.8764 95.5473 22.1106 91.8752L20.3876 89.4193ZM7.10976 94.5C5.76766 94.5 4.88469 94.1716 4.29427 93.6761L2.3656 95.9739C3.64176 97.045 5.27868 97.5 7.10976 97.5V94.5ZM4.32309 93.7009C3.72704 93.1743 3.5 92.6354 3.5 92.0181H0.5C0.5 93.5766 1.15958 94.9091 2.33678 95.9491L4.32309 93.7009ZM3.5 92.0181C3.5 91.3673 3.74084 90.818 4.36427 90.2948L2.4356 87.9969C1.19245 89.0403 0.5 90.4059 0.5 92.0181H3.5ZM4.33173 90.3213C4.90545 89.8665 6.29576 89.3719 8.89336 89.0691L8.546 86.0893C5.91718 86.3957 3.761 86.9455 2.46814 87.9704L4.33173 90.3213ZM8.90136 89.0681C14.1084 88.4328 18.647 86.767 22.4712 84.0343L20.727 81.5935C17.3648 83.996 13.3171 85.5071 8.538 86.0902L8.90136 89.0681ZM22.47 84.0351C27.4169 80.5073 33.6168 73.8981 41.0518 64.3478L38.6846 62.5049C31.2803 72.0158 25.3008 78.3316 20.7281 81.5926L22.47 84.0351ZM41.0534 64.3458L54.4227 47.1125L52.0524 45.2736L38.683 62.5069L41.0534 64.3458ZM54.6578 45.7103C50.1505 32.4502 47.9479 21.9709 47.9479 14.2069H44.9479C44.9479 22.4578 47.2717 33.3026 51.8174 46.6758L54.6578 45.7103ZM46.5144 12.7084C44.5523 12.6213 43.1005 12.5764 42.1781 12.5764V15.5764C43.0289 15.5764 44.4237 15.6185 46.3813 15.7055L46.5144 12.7084ZM42.1781 12.5764C39.6128 12.5764 36.7455 12.9438 33.5877 13.6578L34.2493 16.5839C37.2511 15.9052 39.8903 15.5764 42.1781 15.5764V12.5764ZM78.7231 73.2586C79.2203 72.9237 81.1894 71.5461 83.1335 70.0435C84.1047 69.2929 85.0912 68.4946 85.8911 67.7696C86.2903 67.4077 86.661 67.048 86.9661 66.7096C87.2483 66.3966 87.5642 66.0052 87.7551 65.5856L85.0244 64.3434C85.0315 64.3277 84.9734 64.4397 84.738 64.7008C84.5255 64.9365 84.2351 65.2216 83.8764 65.5467C83.1604 66.1956 82.2438 66.9395 81.2989 67.6699C79.4107 69.1292 77.495 70.4688 77.0472 70.7704L78.7231 73.2586ZM87.7052 65.6852C89.2547 62.8572 90.561 58.5054 91.3598 55.1805L88.4428 54.4797C87.6549 57.7592 86.4218 61.7843 85.0743 64.2437L87.7052 65.6852ZM91.3553 55.1986C93.0897 48.3557 94.1529 43.7565 95.4646 40.9639L92.7492 39.6885C91.2784 42.8199 90.1253 47.841 88.4473 54.4616L91.3553 55.1986ZM95.4606 40.9723C97.5056 36.6872 99.9911 33.6175 102.868 31.6503L101.174 29.174C97.751 31.5151 94.9605 35.0548 92.7531 39.6802L95.4606 40.9723ZM102.863 31.6536C105.838 29.6355 108.753 28.6809 111.628 28.6809V25.6809C108.046 25.6809 104.556 26.8805 101.179 29.1708L102.863 31.6536ZM111.628 28.6809C113.46 28.6809 114.893 29.1105 116.012 29.8838L117.717 27.4155C116.002 26.2305 113.943 25.6809 111.628 25.6809V28.6809ZM116.012 29.8838C117.286 30.7636 117.491 31.3872 117.491 31.6973H120.491C120.491 29.9023 119.278 28.494 117.717 27.4155L116.012 29.8838ZM117.491 31.6973C117.491 31.9911 117.491 32.4417 117.491 32.819C117.491 33.0076 117.491 33.1779 117.491 33.301C117.491 33.3625 117.491 33.4123 117.491 33.4466C117.491 33.4638 117.491 33.4772 117.491 33.4862C117.491 33.4907 117.491 33.4942 117.491 33.4965C117.491 33.4977 117.491 33.4985 117.491 33.4991C117.491 33.4994 117.491 33.4996 117.491 33.4998C117.491 33.4999 117.491 33.4999 117.491 33.5C117.491 33.5 117.491 33.5 117.491 33.5C117.491 33.5 117.491 33.5 118.991 33.5C120.491 33.5 120.491 33.5 120.491 33.5C120.491 33.5 120.491 33.5 120.491 33.4999C120.491 33.4999 120.491 33.4998 120.491 33.4998C120.491 33.4996 120.491 33.4994 120.491 33.4991C120.491 33.4985 120.491 33.4976 120.491 33.4965C120.491 33.4942 120.491 33.4907 120.491 33.4862C120.491 33.4772 120.491 33.4638 120.491 33.4466C120.491 33.4123 120.491 33.3625 120.491 33.3009C120.491 33.1778 120.491 33.0076 120.491 32.819C120.491 32.4417 120.491 31.9911 120.491 31.6973H117.491ZM117.532 33.1522C116.614 36.9999 114.9 39.4932 113.397 41.0105C112.641 41.7735 111.938 42.2907 111.414 42.6081C111.151 42.7676 110.945 42.8697 110.811 42.9264C110.778 42.9402 110.753 42.9502 110.733 42.9573C110.724 42.9607 110.717 42.9633 110.711 42.965C110.706 42.9668 110.703 42.9675 110.704 42.9675C110.704 42.9675 110.704 42.9672 110.706 42.9668C110.708 42.9663 110.711 42.9656 110.714 42.9647C110.721 42.963 110.733 42.9602 110.75 42.957C110.775 42.9523 110.851 42.9387 110.959 42.9387V45.9387C111.215 45.9387 111.438 45.8786 111.55 45.8457C111.693 45.8037 111.839 45.7491 111.982 45.6884C112.27 45.5663 112.605 45.3945 112.969 45.1736C113.7 44.7304 114.598 44.0613 115.528 43.1219C117.398 41.2344 119.398 38.2583 120.45 33.8478L117.532 33.1522ZM110.959 42.9387C111.275 42.9387 111.73 43.0567 112.064 43.4662C112.346 43.8111 112.377 44.1674 112.382 44.2916C112.391 44.5265 112.327 44.6637 112.36 44.565C112.402 44.4423 112.509 44.1979 112.71 43.7798C113.081 43.0089 113.684 41.8263 114.239 40.5369C114.795 39.2437 115.347 37.7493 115.625 36.2718C115.898 34.8193 115.945 33.1872 115.268 31.7543L112.555 33.0356C112.84 33.6386 112.9 34.5298 112.677 35.7173C112.458 36.8798 112.004 38.1418 111.483 39.3506C110.961 40.5631 110.416 41.628 110.007 42.4791C109.818 42.872 109.626 43.2822 109.516 43.6114C109.473 43.7386 109.371 44.0511 109.384 44.4048C109.391 44.5884 109.435 44.9899 109.742 45.3653C110.102 45.8052 110.593 45.9387 110.959 45.9387V42.9387ZM115.268 31.7543C114.733 30.6213 114.239 29.8531 113.595 29.3826C113.25 29.1301 112.928 29.0118 112.7 28.9394C112.446 28.8583 112.443 28.8647 112.369 28.8316L111.14 31.5684C111.421 31.6945 111.735 31.7804 111.789 31.7977C111.871 31.8237 111.85 31.8227 111.825 31.8048C111.823 31.8035 112.054 31.9736 112.555 33.0356L115.268 31.7543ZM111.755 28.7C111.205 28.7 110.603 28.6996 110.055 28.7286C109.533 28.7563 108.924 28.8156 108.403 28.9882L109.346 31.8361C109.465 31.7966 109.736 31.7498 110.214 31.7244C110.667 31.7004 111.185 31.7 111.755 31.7V28.7ZM108.403 28.9882C107.606 29.2522 107.163 29.3501 106.799 29.4357C106.385 29.5332 105.988 29.6336 105.45 29.9207L106.86 32.5682C107.057 32.4636 107.157 32.4336 107.487 32.3558C107.868 32.2661 108.417 32.1436 109.346 31.8361L108.403 28.9882ZM105.454 29.9181C104.057 30.6563 102.842 31.8757 101.611 33.4565L103.979 35.2991C105.111 33.8444 106.013 33.0157 106.856 32.5708L105.454 29.9181ZM101.609 33.4601C100.313 35.1355 99.637 36.7489 98.3963 39.6656L101.157 40.8399C102.436 37.8327 102.968 36.6065 103.982 35.2955L101.609 33.4601ZM98.3865 39.6893C97.5371 41.7846 96.481 45.1627 95.2194 49.7708L98.1129 50.5629C99.3712 45.9669 100.389 42.7355 101.167 40.8163L98.3865 39.6893ZM95.2176 49.7772C93.245 57.1113 91.7736 61.869 90.798 64.1555L93.5572 65.3329C94.629 62.8214 96.15 57.8609 98.1147 50.5564L95.2176 49.7772ZM90.799 64.1529C90.1183 65.7399 89.3131 67.0047 88.4031 67.9806L90.5973 70.0265C91.7872 68.7504 92.7669 67.1755 93.5561 65.3355L90.799 64.1529ZM89.8067 70.4719C93.5202 69.6969 96.3967 69.3286 98.4773 69.3286V66.3286C96.0956 66.3286 92.9874 66.7435 89.1938 67.5352L89.8067 70.4719ZM98.4773 69.3286C99.8079 69.3286 101.021 69.4106 102.121 69.57L102.551 66.6011C101.288 66.4179 99.9291 66.3286 98.4773 66.3286V69.3286ZM102.151 69.5741C103.257 69.7117 105.258 70.0896 108.2 70.7266L108.835 67.7946C105.897 67.1586 103.777 66.7532 102.521 66.597L102.151 69.5741ZM108.194 70.7252C110.732 71.2866 112.665 71.6051 113.872 71.6051V68.6051C113.032 68.6051 111.395 68.3607 108.841 67.796L108.194 70.7252ZM113.872 71.6051C115.171 71.6051 116.361 71.2306 117.347 70.4177L115.438 68.1035C115.058 68.4166 114.568 68.6051 113.872 68.6051V71.6051ZM117.349 70.4154C118.307 69.6216 118.955 68.5688 118.955 67.2778H115.955C115.955 67.4555 115.895 67.7246 115.435 68.1058L117.349 70.4154ZM118.955 67.2778C118.955 66.4874 118.663 65.6011 118.276 64.7258L115.532 65.9376C115.88 66.7268 115.955 67.138 115.955 67.2778H118.955ZM118.279 64.7326C117.963 64.0064 117.892 63.6111 117.892 63.459H114.892C114.892 64.2371 115.163 65.0903 115.529 65.9307L118.279 64.7326ZM117.892 63.459C117.892 63.143 117.976 63.0753 118.009 63.0461L116.035 60.7876C115.228 61.4927 114.892 62.4532 114.892 63.459H117.892ZM118.045 63.0138C118.136 62.9287 118.297 62.8293 118.676 62.8293V59.8293C117.69 59.8293 116.748 60.1216 115.999 60.8198L118.045 63.0138ZM118.676 62.8293C118.973 62.8293 119.236 62.9262 119.532 63.2815L121.836 61.36C121.03 60.3934 119.953 59.8293 118.676 59.8293V62.8293ZM119.55 63.3028C119.795 63.5861 120.011 64.0762 120.011 64.9645H123.011C123.011 63.6007 122.675 62.3283 121.818 61.3387L119.55 63.3028ZM120.011 64.9645C120.011 66.5748 119.325 68.0063 117.727 69.3101L119.624 71.6345C121.806 69.8539 123.011 67.6135 123.011 64.9645H120.011ZM117.727 69.3101C116.181 70.5719 113.993 71.2856 110.998 71.2856V74.2856C114.46 74.2856 117.391 73.457 119.624 71.6345L117.727 69.3101ZM110.998 71.2856C109.384 71.2856 80.4591 70.7338 78.0158 70.5202L77.7545 73.5088C80.351 73.7358 109.409 74.2856 110.998 74.2856V71.2856ZM148.284 62.1739L150.622 60.2938L148.866 58.1102L146.568 59.7134L148.284 62.1739ZM149.584 63.7895L151.574 66.0339L153.713 64.1371L151.921 61.9094L149.584 63.7895ZM128.755 70.5825L126.443 72.4938L126.455 72.5089L126.468 72.5239L128.755 70.5825ZM132.417 49.2856L134.924 50.9338L134.928 50.9268L134.933 50.9199L132.417 49.2856ZM150.41 41.7582L148.395 43.98L148.425 44.0074L148.456 44.034L150.41 41.7582ZM143.796 54.8301L145.202 57.4802L145.218 57.4714L145.235 57.4624L143.796 54.8301ZM134.031 59.1997L132.865 56.4358L131.364 57.069L131.078 58.6719L134.031 59.1997ZM134.543 66.6168L132.249 68.5498L132.27 68.575L132.292 68.5997L134.543 66.6168ZM140.685 66.8004L141.888 69.5487L141.889 69.5484L140.685 66.8004ZM134.504 56.8497L131.55 56.3219L130.583 61.7352L135.658 59.6185L134.504 56.8497ZM144.032 51.1582L146.105 53.3272L146.12 53.3123L146.136 53.2972L144.032 51.1582ZM145.292 44.4387L143.07 46.4546L143.112 46.501L143.156 46.5456L145.292 44.4387ZM140.173 44.5122L141.949 46.9304L141.958 46.9236L141.967 46.9167L140.173 44.5122ZM137.063 48.6247L134.335 47.3765L134.33 47.3868L134.326 47.3972L137.063 48.6247ZM181.909 39.8856L181.327 36.9426L180.096 37.1861L179.405 38.2333L181.909 39.8856ZM184.508 39.3715L187.367 40.2803L188.904 35.4437L183.925 36.4286L184.508 39.3715ZM181.555 48.6614L184.412 49.5746L184.414 49.5702L181.555 48.6614ZM178.208 61.4395L181.138 62.0854L181.139 62.0777L178.208 61.4395ZM180.334 66.8739L178.875 64.2525L178.869 64.2559L180.334 66.8739ZM185.019 63.4957L187.272 61.5141L185.268 59.2364L183.013 61.2657L185.019 63.4957ZM186.279 64.9278L188.223 67.2127L190.547 65.2362L188.532 62.9461L186.279 64.9278ZM175.727 71.9411L174.768 69.0987L174.76 69.1013L174.753 69.1039L175.727 71.9411ZM171.081 69.2239L173.93 70.1638L173.936 70.1451L173.942 70.1262L171.081 69.2239ZM172.656 64.2301L175.517 65.1324L170.421 62.229L172.656 64.2301ZM164.585 70.7293L163.08 68.1342L163.072 68.1385L163.065 68.1429L164.585 70.7293ZM155.805 70.9129L158.135 69.0236L158.13 69.0179L158.126 69.0123L155.805 70.9129ZM156.356 56.9598L153.641 55.6834L153.637 55.6926L153.632 55.7018L156.356 56.9598ZM170.215 42.5661L169.013 39.8176L169.005 39.8209L168.998 39.8243L170.215 42.5661ZM180.964 41.3176L180.627 44.2986L182.455 44.5053L183.468 42.9699L180.964 41.3176ZM177.027 45.5036L179.912 46.3265L180.812 43.1691L177.587 42.5563L177.027 45.5036ZM167.262 46.9356L168.953 49.414L168.964 49.406L168.976 49.398L167.262 46.9356ZM162.341 53.4715L159.638 52.1687L159.633 52.1788L162.341 53.4715ZM169.191 64.8543L171.165 67.1137L171.173 67.1071L171.18 67.1005L169.191 64.8543ZM173.759 56.9598L170.874 56.1369L170.872 56.1418L173.759 56.9598ZM211.596 41.7582L209.909 44.239L209.938 44.2583L209.966 44.2769L211.596 41.7582ZM212.699 46.3848L210.707 44.1418L210.679 44.166L210.653 44.1908L212.699 46.3848ZM209.47 46.8254L207.928 49.3985L207.992 49.4374L208.059 49.473L209.47 46.8254ZM207.895 45.2465L205.562 47.1325L205.569 47.1406L205.575 47.1487L207.895 45.2465ZM201.202 44.0348L199.156 41.8408L201.202 44.0348ZM200.769 49.8364L198.14 51.2819L198.148 51.2964L198.156 51.3109L200.769 49.8364ZM204.745 54.3895L206.858 52.259L206.856 52.2577L204.745 54.3895ZM205.572 69.4442L207.473 71.7656L207.48 71.7597L207.487 71.7538L205.572 69.4442ZM189.469 70.5825L187.612 72.9389L187.624 72.9482L187.636 72.9574L189.469 70.5825ZM192.067 63.8997L190.078 66.1452L190.108 66.1717L190.139 66.1975L192.067 63.8997ZM192.776 66.4332L189.803 66.0347L189.792 66.1105L189.786 66.1866L192.776 66.4332ZM193.839 69.2973L195.705 66.9483L195.684 66.9319L195.663 66.9158L193.839 69.2973ZM200.493 69.4809L201.63 72.2572L201.657 72.2462L201.683 72.2347L200.493 69.4809ZM203.013 67.4247L205.509 69.0886L205.519 69.0733L205.529 69.0579L203.013 67.4247ZM203.052 62.027L200.509 63.6179L200.526 63.6448L200.543 63.6713L203.052 62.027ZM199.273 57.6575L197.11 59.7366L197.118 59.7451L199.273 57.6575ZM198.288 43.1903L200.247 45.4629L200.254 45.4563L200.262 45.4496L198.288 43.1903ZM235.378 62.1739L237.715 60.2938L235.959 58.1102L233.661 59.7134L235.378 62.1739ZM236.677 63.7895L238.668 66.0339L240.806 64.1371L239.015 61.9094L236.677 63.7895ZM215.849 70.5825L213.536 72.4938L213.549 72.5089L213.562 72.5239L215.849 70.5825ZM219.51 49.2856L222.017 50.9338L222.022 50.9268L222.026 50.9199L219.51 49.2856ZM237.504 41.7582L235.488 43.98L235.518 44.0074L235.549 44.034L237.504 41.7582ZM230.889 54.8301L232.295 57.4802L232.312 57.4714L232.328 57.4624L230.889 54.8301ZM221.125 59.1997L219.958 56.4358L218.458 57.069L218.171 58.6719L221.125 59.1997ZM221.636 66.6168L219.342 68.5498L219.363 68.575L219.385 68.5997L221.636 66.6168ZM227.779 66.8004L228.982 69.5487L228.982 69.5484L227.779 66.8004ZM221.597 56.8497L218.644 56.3219L217.676 61.7352L222.752 59.6185L221.597 56.8497ZM231.125 51.1582L233.198 53.3272L233.214 53.3123L233.229 53.2972L231.125 51.1582ZM232.385 44.4387L230.164 46.4546L230.206 46.501L230.25 46.5456L232.385 44.4387ZM227.267 44.5122L229.042 46.9304L229.052 46.9236L229.061 46.9167L227.267 44.5122ZM224.156 48.6247L221.428 47.3765L221.424 47.3868L221.419 47.3972L224.156 48.6247ZM145.947 64.054L147.246 65.6696L151.921 61.9094L150.622 60.2938L145.947 64.054ZM147.593 61.5451C141.289 67.1359 136.491 69.345 133.047 69.345V75.345C138.79 75.345 145.016 71.8504 151.574 66.0339L147.593 61.5451ZM133.047 69.345C131.862 69.345 131.351 69.0044 131.042 68.641L126.468 72.5239C128.155 74.5106 130.505 75.345 133.047 75.345V69.345ZM131.068 68.6712C130.76 68.2994 130.298 67.2719 130.298 64.9278H124.298C124.298 67.7732 124.808 70.5155 126.443 72.4938L131.068 68.6712ZM130.298 64.9278C130.298 60.3766 131.772 55.7264 134.924 50.9338L129.91 47.6374C126.237 53.224 124.298 59.0018 124.298 64.9278H130.298ZM134.933 50.9199C138.41 45.5673 142.162 43.4364 146.158 43.4364V37.4364C139.497 37.4364 134.089 41.2049 129.901 47.6513L134.933 50.9199ZM146.158 43.4364C147.589 43.4364 148.17 43.7758 148.395 43.98L152.426 39.5365C150.709 37.9782 148.455 37.4364 146.158 37.4364V43.4364ZM148.456 44.034C148.684 44.2299 148.907 44.5271 148.907 45.32H154.907C154.907 43.0774 154.132 41.0001 152.365 39.4825L148.456 44.034ZM148.907 45.32C148.907 46.1164 148.624 47.0586 147.753 48.1958L152.517 51.8441C154.008 49.897 154.907 47.7058 154.907 45.32H148.907ZM147.753 48.1958C146.954 49.2397 145.278 50.6006 142.357 52.1978L145.235 57.4624C148.403 55.7305 150.954 53.8846 152.517 51.8441L147.753 48.1958ZM142.39 52.1801C141.005 52.9146 137.877 54.3202 132.865 56.4358L135.198 61.9635C140.16 59.8687 143.541 58.3612 145.202 57.4802L142.39 52.1801ZM131.078 58.6719C130.814 60.1476 130.677 61.5857 130.677 62.9817H136.677C136.677 61.9787 136.776 60.8954 136.984 59.7274L131.078 58.6719ZM130.677 62.9817C130.677 64.8551 130.948 67.0061 132.249 68.5498L136.837 64.6839C136.945 64.8111 136.887 64.8163 136.812 64.4986C136.738 64.1902 136.677 63.701 136.677 62.9817H130.677ZM132.292 68.5997C133.596 70.0802 135.371 70.645 137.142 70.645V64.645C136.877 64.645 136.765 64.6047 136.749 64.5983C136.742 64.5954 136.749 64.5977 136.765 64.6083C136.78 64.6191 136.79 64.6295 136.794 64.6339L132.292 68.5997ZM137.142 70.645C138.738 70.645 140.333 70.2294 141.888 69.5487L139.482 64.0522C138.465 64.4975 137.698 64.645 137.142 64.645V70.645ZM141.889 69.5484C143.909 68.6634 146.646 66.9746 150.001 64.6343L146.568 59.7134C143.255 62.0242 140.926 63.4198 139.482 64.0525L141.889 69.5484ZM135.658 59.6185C140.056 57.7844 143.606 55.7149 146.105 53.3272L141.959 48.9893C140.206 50.6651 137.403 52.3899 133.349 54.0808L135.658 59.6185ZM146.136 53.2972C147.893 51.5688 149.198 49.4382 149.198 46.9356H143.198C143.198 47.2237 143.058 47.9081 141.928 49.0193L146.136 53.2972ZM149.198 46.9356C149.198 45.2822 148.704 43.6261 147.428 42.3319L143.156 46.5456C143.145 46.5345 143.143 46.5226 143.151 46.5448C143.163 46.5776 143.198 46.6938 143.198 46.9356H149.198ZM147.514 42.4229C146.307 41.0932 144.705 40.484 143.008 40.484V46.484C143.076 46.484 143.116 46.4897 143.133 46.4928C143.148 46.4958 143.146 46.4968 143.131 46.4906C143.115 46.4841 143.098 46.4746 143.083 46.4636C143.067 46.4527 143.064 46.4473 143.07 46.4546L147.514 42.4229ZM143.008 40.484C141.28 40.484 139.72 41.1076 138.38 42.1076L141.967 46.9167C142.464 46.5459 142.794 46.484 143.008 46.484V40.484ZM138.398 42.0939C136.641 43.3835 135.322 45.2193 134.335 47.3765L139.791 49.8728C140.484 48.3581 141.238 47.4522 141.949 46.9304L138.398 42.0939ZM134.326 47.3972C133.022 50.3043 132.094 53.2804 131.55 56.3219L137.457 57.3774C137.911 54.8377 138.689 52.3305 139.8 49.8521L134.326 47.3972ZM182.491 42.8286L185.09 42.3145L183.925 36.4286L181.327 36.9426L182.491 42.8286ZM181.649 38.4627L178.696 47.7526L184.414 49.5702L187.367 40.2803L181.649 38.4627ZM178.697 47.7482C177.48 51.5554 176.342 55.9097 175.277 60.8013L181.139 62.0777C182.174 57.3245 183.266 53.1601 184.412 49.5746L178.697 47.7482ZM175.278 60.7936C174.721 63.3195 174.342 65.3544 174.342 66.5067H180.342C180.342 66.5067 180.342 66.5061 180.342 66.5048C180.342 66.5035 180.342 66.5016 180.342 66.4991C180.342 66.494 180.342 66.4867 180.343 66.4771C180.343 66.4577 180.345 66.431 180.347 66.3964C180.352 66.3261 180.361 66.2331 180.375 66.1145C180.403 65.8756 180.449 65.5654 180.515 65.1762C180.649 64.3972 180.854 63.3713 181.138 62.0854L175.278 60.7936ZM174.342 66.5067C174.342 67.2503 174.493 68.3681 175.319 69.3227C176.216 70.3606 177.413 70.645 178.326 70.645V64.645C178.583 64.645 179.288 64.7396 179.857 65.3981C180.106 65.6856 180.228 65.9736 180.286 66.1738C180.341 66.365 180.342 66.4899 180.342 66.5067H174.342ZM178.326 70.645C179.075 70.645 179.748 70.4334 180.218 70.2528C180.733 70.0551 181.267 69.7898 181.799 69.4919L178.869 64.2559C178.483 64.472 178.222 64.5923 178.068 64.6516C177.993 64.6802 177.973 64.683 177.999 64.677C178.019 64.6722 178.137 64.645 178.326 64.645V70.645ZM181.793 69.4952C183.632 68.4716 185.376 67.2107 187.026 65.7258L183.013 61.2657C181.671 62.4735 180.291 63.4646 178.875 64.2525L181.793 69.4952ZM182.767 65.4774L184.027 66.9094L188.532 62.9461L187.272 61.5141L182.767 65.4774ZM184.335 62.6428C181.287 65.2365 179.543 66.6241 178.912 67.0288L182.15 72.0798C183.199 71.4075 185.287 69.7107 188.223 67.2127L184.335 62.6428ZM178.912 67.0288C177.39 68.0042 176.01 68.6791 174.768 69.0987L176.687 74.7834C178.489 74.1749 180.312 73.2587 182.15 72.0798L178.912 67.0288ZM174.753 69.1039C174.033 69.3512 173.391 69.4551 172.814 69.4551V75.4551C174.127 75.4551 175.427 75.2163 176.702 74.7783L174.753 69.1039ZM172.814 69.4551C172.678 69.4551 172.669 69.4394 172.745 69.4613C172.831 69.4858 173.023 69.5584 173.235 69.7409L169.321 74.2881C170.427 75.2401 171.77 75.4551 172.814 75.4551V69.4551ZM173.235 69.7409C173.44 69.9172 173.592 70.1392 173.681 70.3628C173.764 70.5704 173.766 70.7123 173.766 70.7293H167.766C167.766 71.9291 168.157 73.2862 169.321 74.2881L173.235 69.7409ZM173.766 70.7293C173.766 70.8153 173.756 70.8137 173.782 70.692C173.805 70.5786 173.85 70.4057 173.93 70.1638L168.232 68.2839C167.991 69.0169 167.766 69.8805 167.766 70.7293H173.766ZM173.942 70.1262L175.517 65.1324L169.795 63.3278L168.22 68.3215L173.942 70.1262ZM170.421 62.229C168.388 64.4999 165.949 66.4705 163.08 68.1342L166.09 73.3245C169.468 71.3653 172.41 69.0031 174.891 66.2312L170.421 62.229ZM163.065 68.1429C161.439 69.0985 160.207 69.4184 159.309 69.4184V75.4184C161.613 75.4184 163.898 74.6123 166.105 73.3158L163.065 68.1429ZM159.309 69.4184C158.511 69.4184 158.275 69.196 158.135 69.0236L153.474 72.8023C154.962 74.6372 157.062 75.4184 159.309 75.4184V69.4184ZM158.126 69.0123C157.564 68.326 157.151 67.2903 157.151 65.6254H151.151C151.151 68.3179 151.841 70.8072 153.483 72.8136L158.126 69.0123ZM157.151 65.6254C157.151 63.5893 157.731 61.1368 159.079 58.2178L153.632 55.7018C152.041 59.1474 151.151 62.472 151.151 65.6254H157.151ZM159.071 58.2362C160.425 55.3566 162.231 52.7377 164.504 50.3729L160.177 46.2154C157.463 49.0402 155.279 52.1984 153.641 55.6834L159.071 58.2362ZM164.504 50.3729C166.779 48.0052 169.093 46.3468 171.433 45.3079L168.998 39.8243C165.825 41.2333 162.889 43.3935 160.177 46.2154L164.504 50.3729ZM171.418 45.3145C173.037 44.6061 175.318 44.1707 178.405 44.1707V38.1707C174.824 38.1707 171.646 38.6656 169.013 39.8176L171.418 45.3145ZM178.405 44.1707C179.128 44.1707 179.868 44.2129 180.627 44.2986L181.301 38.3366C180.327 38.2265 179.361 38.1707 178.405 38.1707V44.1707ZM183.468 42.9699L184.413 41.5379L179.405 38.2333L178.46 39.6653L183.468 42.9699ZM177.587 42.5563C176.064 42.2671 174.669 42.0997 173.444 42.0997V48.0997C174.16 48.0997 175.154 48.2015 176.467 48.4508L177.587 42.5563ZM173.444 42.0997C170.534 42.0997 167.861 42.8635 165.548 44.4732L168.976 49.398C170.18 48.5598 171.628 48.0997 173.444 48.0997V42.0997ZM165.572 44.4572C163.183 46.0867 161.257 48.8102 159.638 52.1687L165.043 54.7744C166.469 51.8172 167.824 50.1834 168.953 49.414L165.572 44.4572ZM159.633 52.1788C157.965 55.6717 157.096 59.2444 157.096 62.8715H163.096C163.096 60.232 163.723 57.538 165.048 54.7642L159.633 52.1788ZM157.096 62.8715C157.096 64.7612 157.412 66.8279 158.684 68.3751L163.319 64.5648C163.37 64.627 163.306 64.5815 163.232 64.2874C163.158 63.9932 163.096 63.536 163.096 62.8715H157.096ZM158.684 68.3751C159.872 69.8198 161.518 70.5715 163.364 70.5715V64.5715C163.311 64.5715 163.286 64.5666 163.283 64.566C163.282 64.5657 163.284 64.5661 163.29 64.5681C163.296 64.5701 163.304 64.5731 163.313 64.5772C163.322 64.5813 163.33 64.5859 163.337 64.5903C163.345 64.5948 163.349 64.5983 163.351 64.5999C163.356 64.6036 163.344 64.5954 163.319 64.5648L158.684 68.3751ZM163.364 70.5715C166.197 70.5715 168.819 69.1632 171.165 67.1137L167.218 62.595C165.417 64.1684 164.154 64.5715 163.364 64.5715V70.5715ZM171.18 67.1005C173.791 64.7892 175.562 61.6008 176.645 57.7778L170.872 56.1418C170.013 59.1729 168.74 61.2476 167.203 62.6082L171.18 67.1005ZM176.644 57.7828L179.912 46.3265L174.142 44.6806L170.874 56.1369L176.644 57.7828ZM206.202 43.4731C208.236 43.4731 209.347 43.8567 209.909 44.239L213.283 39.2775C211.326 37.9462 208.841 37.4731 206.202 37.4731V43.4731ZM209.966 44.2769C210.369 44.5376 210.512 44.7183 210.545 44.769C210.559 44.7898 210.551 44.7822 210.54 44.7487C210.529 44.714 210.526 44.6804 210.526 44.659H216.526C216.526 42.1695 215 40.3878 213.226 39.2396L209.966 44.2769ZM210.526 44.659C210.526 44.5575 210.55 44.4217 210.613 44.29C210.673 44.166 210.73 44.1211 210.707 44.1418L214.691 48.6278C215.801 47.6422 216.526 46.2818 216.526 44.659H210.526ZM210.653 44.1908C210.654 44.1893 210.665 44.1793 210.686 44.1663C210.707 44.1532 210.731 44.1412 210.755 44.1318C210.78 44.1226 210.797 44.1189 210.803 44.1178C210.809 44.1169 210.799 44.1192 210.769 44.1192V50.1192C212.24 50.1192 213.629 49.6197 214.745 48.5788L210.653 44.1908ZM210.769 44.1192C210.716 44.1192 210.707 44.1139 210.732 44.1196C210.759 44.1258 210.813 44.1419 210.881 44.1779L208.059 49.473C208.939 49.9418 209.875 50.1192 210.769 50.1192V44.1192ZM211.013 44.2524C211.093 44.3006 211.121 44.3276 211.09 44.3018C211.063 44.2795 211.009 44.2312 210.925 44.1468C210.754 43.9756 210.519 43.7153 210.215 43.3443L205.575 47.1487C206.243 47.9632 207.061 48.8787 207.928 49.3985L211.013 44.2524ZM210.228 43.3606C208.724 41.4998 206.683 39.8598 204.076 39.8598V45.8598C203.989 45.8598 204.494 45.811 205.562 47.1325L210.228 43.3606ZM204.076 39.8598C202.186 39.8598 200.51 40.5777 199.156 41.8408L203.248 46.2288C203.573 45.9253 203.813 45.8598 204.076 45.8598V39.8598ZM199.156 41.8408C197.711 43.1886 196.981 44.9484 196.981 46.8989H202.981C202.981 46.5483 203.066 46.3988 203.248 46.2288L199.156 41.8408ZM196.981 46.8989C196.981 48.4505 197.393 49.9232 198.14 51.2819L203.397 48.3908C203.095 47.8401 202.981 47.3545 202.981 46.8989H196.981ZM198.156 51.3109C198.917 52.6589 200.545 54.4524 202.635 56.5213L206.856 52.2577C204.693 50.1162 203.67 48.8742 203.381 48.3619L198.156 51.3109ZM202.633 56.52C205.298 59.1622 206.116 61.1792 206.116 62.6145H212.116C212.116 58.8602 210.02 55.3939 206.858 52.259L202.633 56.52ZM206.116 62.6145C206.116 64.1499 205.472 65.6307 203.658 67.1346L207.487 71.7538C210.397 69.341 212.116 66.2687 212.116 62.6145H206.116ZM203.672 67.1228C201.956 68.5271 199.63 69.345 196.438 69.345V75.345C200.7 75.345 204.463 74.229 207.473 71.7656L203.672 67.1228ZM196.438 69.345C193.595 69.345 192.061 68.7933 191.302 68.2075L187.636 72.9574C189.922 74.7216 193.033 75.345 196.438 75.345V69.345ZM191.325 68.226C190.43 67.5207 190.185 66.8808 190.185 66.1762H184.185C184.185 68.9476 185.462 71.2453 187.612 72.9389L191.325 68.226ZM190.185 66.1762C190.185 66.1308 190.189 66.1085 190.189 66.1049C190.19 66.102 190.188 66.1125 190.18 66.1315C190.177 66.1405 190.172 66.15 190.167 66.1594C190.162 66.1689 190.157 66.1772 190.152 66.1841C190.143 66.1986 190.138 66.2018 190.145 66.1946L185.957 61.8985C184.761 63.0642 184.185 64.5667 184.185 66.1762H190.185ZM190.145 66.1946C190.159 66.1813 190.163 66.1801 190.155 66.1848C190.152 66.1869 190.148 66.1898 190.142 66.1929C190.136 66.196 190.129 66.1988 190.123 66.2012C190.117 66.2036 190.112 66.2052 190.109 66.2061C190.106 66.207 190.106 66.2069 190.108 66.2064C190.114 66.2055 190.135 66.202 190.177 66.202V60.202C188.591 60.202 187.12 60.7646 185.957 61.8985L190.145 66.1946ZM190.177 66.202C190.202 66.202 190.211 66.204 190.205 66.203C190.199 66.2019 190.183 66.1987 190.162 66.1908C190.141 66.1828 190.12 66.1728 190.103 66.1623C190.085 66.1519 190.077 66.1446 190.078 66.1452L194.057 61.6542C192.955 60.6781 191.607 60.202 190.177 60.202V66.202ZM190.139 66.1975C190.139 66.1979 190.118 66.1801 190.086 66.1406C190.053 66.1003 190.012 66.0415 189.973 65.9638C189.889 65.794 189.855 65.6178 189.855 65.4786H195.855C195.855 63.8669 195.108 62.5355 193.996 61.6018L190.139 66.1975ZM189.855 65.4786C189.855 65.5346 189.847 65.7055 189.803 66.0347L195.749 66.8318C195.81 66.3776 195.855 65.9121 195.855 65.4786H189.855ZM189.786 66.1866C189.756 66.554 189.737 66.911 189.737 67.2411H195.737C195.737 67.1305 195.744 66.9489 195.766 66.6799L189.786 66.1866ZM189.737 67.2411C189.737 69.1271 190.662 70.6423 192.015 71.6788L195.663 66.9158C195.571 66.845 195.604 66.8455 195.656 66.9434C195.682 66.9909 195.704 67.047 195.719 67.1071C195.733 67.1666 195.737 67.2136 195.737 67.2411H189.737ZM191.973 71.6463C193.376 72.7611 195.085 73.1418 196.753 73.1418V67.1418C195.953 67.1418 195.719 66.9596 195.705 66.9483L191.973 71.6463ZM196.753 73.1418C198.477 73.1418 200.123 72.8741 201.63 72.2572L199.356 66.7046C198.711 66.969 197.863 67.1418 196.753 67.1418V73.1418ZM201.683 72.2347C203.248 71.5585 204.56 70.5134 205.509 69.0886L200.517 65.7607C200.259 66.1474 199.891 66.4731 199.303 66.7271L201.683 72.2347ZM205.529 69.0579C206.378 67.7511 206.919 66.2744 206.919 64.6707H200.919C200.919 64.8785 200.856 65.2378 200.497 65.7914L205.529 69.0579ZM206.919 64.6707C206.919 63.0993 206.396 61.6557 205.562 60.3827L200.543 63.6713C200.864 64.1608 200.919 64.4797 200.919 64.6707H206.919ZM205.596 60.4361C204.853 59.248 203.374 57.5793 201.427 55.5699L197.118 59.7451C199.108 61.7991 200.15 63.0435 200.509 63.6179L205.596 60.4361ZM201.435 55.5783C198.977 53.0213 198.178 50.9999 198.178 49.4692H192.178C192.178 53.177 194.108 56.6145 197.11 59.7366L201.435 55.5783ZM198.178 49.4692C198.178 48.0717 198.73 46.7695 200.247 45.4629L196.33 40.9177C193.699 43.185 192.178 46.0688 192.178 49.4692H198.178ZM200.262 45.4496C201.701 44.1922 203.6 43.4731 206.202 43.4731V37.4731C202.399 37.4731 199.022 38.5655 196.315 40.9309L200.262 45.4496ZM233.04 64.0539L234.339 65.6696L239.015 61.9094L237.715 60.2938L233.04 64.0539ZM234.686 61.5451C228.383 67.1359 223.585 69.345 220.14 69.345V75.345C225.883 75.345 232.109 71.8504 238.668 66.0339L234.686 61.5451ZM220.14 69.345C218.955 69.345 218.444 69.0044 218.136 68.641L213.562 72.5239C215.248 74.5106 217.598 75.345 220.14 75.345V69.345ZM218.161 68.6712C217.854 68.2994 217.392 67.2719 217.392 64.9278H211.392C211.392 67.7732 211.901 70.5155 213.536 72.4938L218.161 68.6712ZM217.392 64.9278C217.392 60.3766 218.866 55.7264 222.017 50.9338L217.004 47.6374C213.33 53.224 211.392 59.0018 211.392 64.9278H217.392ZM222.026 50.9199C225.503 45.5673 229.255 43.4364 233.252 43.4364V37.4364C226.591 37.4364 221.182 41.2049 216.995 47.6513L222.026 50.9199ZM233.252 43.4364C234.682 43.4364 235.263 43.7758 235.488 43.98L239.52 39.5365C237.802 37.9782 235.548 37.4364 233.252 37.4364V43.4364ZM235.549 44.034C235.777 44.2299 236 44.5271 236 45.32H242C242 43.0774 241.225 41.0001 239.459 39.4825L235.549 44.034ZM236 45.32C236 46.1164 235.718 47.0586 234.847 48.1958L239.61 51.8441C241.101 49.897 242 47.7058 242 45.32H236ZM234.847 48.1958C234.047 49.2397 232.372 50.6006 229.45 52.1978L232.328 57.4624C235.496 55.7305 238.047 53.8846 239.61 51.8441L234.847 48.1958ZM229.483 52.1801C228.099 52.9146 224.97 54.3202 219.958 56.4358L222.291 61.9635C227.254 59.8687 230.635 58.3612 232.295 57.4802L229.483 52.1801ZM218.171 58.6719C217.908 60.1476 217.77 61.5857 217.77 62.9817H223.77C223.77 61.9787 223.869 60.8954 224.078 59.7274L218.171 58.6719ZM217.77 62.9817C217.77 64.8551 218.042 67.0061 219.342 68.5498L223.931 64.6839C224.038 64.8111 223.981 64.8163 223.905 64.4986C223.832 64.1902 223.77 63.701 223.77 62.9817H217.77ZM219.385 68.5997C220.689 70.0802 222.465 70.645 224.235 70.645V64.645C223.971 64.645 223.859 64.6047 223.843 64.5983C223.835 64.5954 223.843 64.5977 223.858 64.6083C223.873 64.6191 223.884 64.6295 223.888 64.6339L219.385 68.5997ZM224.235 70.645C225.831 70.645 227.427 70.2294 228.982 69.5487L226.576 64.0522C225.558 64.4975 224.792 64.645 224.235 64.645V70.645ZM228.982 69.5484C231.003 68.6634 233.739 66.9746 237.094 64.6343L233.661 59.7134C230.349 62.0242 228.019 63.4198 226.575 64.0525L228.982 69.5484ZM222.752 59.6185C227.15 57.7844 230.699 55.7149 233.198 53.3272L229.053 48.9893C227.299 50.6651 224.497 52.3899 220.442 54.0808L222.752 59.6185ZM233.229 53.2972C234.986 51.5688 236.291 49.4382 236.291 46.9356H230.291C230.291 47.2236 230.152 47.9081 229.022 49.0193L233.229 53.2972ZM236.291 46.9356C236.291 45.2822 235.798 43.6261 234.521 42.3319L230.25 46.5456C230.239 46.5345 230.236 46.5226 230.244 46.5448C230.256 46.5776 230.291 46.6939 230.291 46.9356H236.291ZM234.607 42.4229C233.401 41.0932 231.799 40.484 230.102 40.484V46.484C230.17 46.484 230.209 46.4897 230.226 46.4928C230.242 46.4958 230.239 46.4968 230.224 46.4906C230.209 46.4841 230.191 46.4746 230.176 46.4636C230.161 46.4527 230.157 46.4473 230.164 46.4546L234.607 42.4229ZM230.102 40.484C228.373 40.484 226.813 41.1076 225.473 42.1076L229.061 46.9167C229.558 46.5459 229.888 46.484 230.102 46.484V40.484ZM225.491 42.0939C223.735 43.3835 222.415 45.2193 221.428 47.3765L226.884 49.8728C227.577 48.3581 228.331 47.4522 229.042 46.9304L225.491 42.0939ZM221.419 47.3972C220.115 50.3042 219.187 53.2804 218.644 56.3219L224.55 57.3774C225.004 54.8377 225.782 52.3305 226.894 49.8521L221.419 47.3972Z" fill="#050000" mask="url(#path-1-outside-1_102_23)"/>
<defs>
<linearGradient id="paint0_linear_102_23" x1="107" y1="61.5" x2="247.979" y2="63.4997" gradientUnits="userSpaceOnUse">
<stop stop-color="#08010A"/>
<stop offset="1" stop-color="#09010D" stop-opacity="0.23"/>
</linearGradient>
</defs>
</svg>
